<?xml version="1.0" standalone="no"?>
<!DOCTYPE svg PUBLIC "-//W3C//DTD SVG 1.1//EN" "http://www.w3.org/Graphics/SVG/1.1/DTD/svg11.dtd" >
<svg xmlns="http://www.w3.org/2000/svg" xmlns:xlink="http://www.w3.org/1999/xlink" version="1.1">
<metadata></metadata>
<defs>
<font id="kruti_dev_010regular" horiz-adv-x="1007" >
<font-face units-per-em="2048" ascent="1638" descent="-410" />
<missing-glyph horiz-adv-x="776" />
<glyph horiz-adv-x="0" />
<glyph unicode="&#xd;" horiz-adv-x="776" />
<glyph unicode=" "  horiz-adv-x="776" />
<glyph unicode="&#x09;" horiz-adv-x="776" />
<glyph unicode="&#xa0;" horiz-adv-x="776" />
<glyph unicode="!" horiz-adv-x="614" d="M332 1372h125l-17 -1012h-92zM336 0v125h129v-125h-129z" />
<glyph unicode="&#x22;" horiz-adv-x="468" d="M0 973v84h479v-84h-190l375 -389v-207q-68 -78 -193 -78q-119 0 -213 71.5t-94 194.5v408h-164zM272 563q0 -86 54 -127q6 -6 24.5 -15t36.5 -20q35 -12 72 -12l55 6l55 19l47 30l35 41l-379 404v-326z" />
<glyph unicode="#" horiz-adv-x="1107" d="M0 973v84h1124v-84h-532v-256l57 31l70 24l65 10q96 0 168 -74.5t72 -164.5q0 -59 -23.5 -122t-62.5 -114l-37 -47l-49 -53l-76 69l41 39l31 35q20 25 53 99q18 47 19 102q0 70 -41 111q-45 35 -107 34q-66 0 -100 -18q-27 -6 -45 -23l-39 -32l-4 -13l-2 -10l-4 -10 l-5 -6q-12 -23 -38 -37l-56 -25l-26 -6l-31 -2l-29 -4h-20l12 -25l39 -57l49 -74l47 -61l55 -70l156 -174l-88 -57l-53 55l-72 86l-94 117l-88 125l-100 147l-72 121l-21 39l-18 41l88 45l76 -131l16 -19l29 -16l33 -12l32 -4q43 0 76 45l6 31l2 53v258h-483z" />
<glyph unicode="$" horiz-adv-x="1132" d="M29 479v88h483v490h88v-490h487v-88h-487v-479h-88v479h-483z" />
<glyph unicode="%" horiz-adv-x="344" d="M104 164v139h144v-139h-144zM104 752v137h144v-137h-144z" />
<glyph unicode="&#x26;" horiz-adv-x="1132" d="M29 479v88h1050v-88h-1050z" />
<glyph unicode="'" horiz-adv-x="759" d="M0 973v84h760v-84h-152q29 -27 43 -55l33 -60l18 -63l9 -66q0 -111 -65.5 -210t-164.5 -140q-70 -29 -145 -29l340 -282l-72 -72l-491 416l71 71l68 -55l12 -4h12l54 2q59 6 114 37l64 43l49 51l33 55l10 43l4 60l-31 -27l-24 -18q-31 -25 -70 -37l-63 -10q-98 0 -164 63 q-35 31 -54.5 71t-19.5 83q0 66 58 131zM289 850q0 -61 39 -100t100 -39q66 0 125 55l16 22l23 33l-19 43q-6 20 -16 33q-49 78 -137 78q-37 0 -55 -10q-45 -12 -68 -68z" />
<glyph unicode="(" horiz-adv-x="368" d="M68 -193l92 310h137l-137 -310h-92zM168 541v118h131v-118h-131z" />
<glyph unicode=")" horiz-adv-x="1280" d="M0 973v84h1288v-84h-217v-281h-399q-31 0 -55.5 -8t-47.5 -27q-14 -10 -28 -47l-9 -63q0 -160 183 -234q29 -8 54.5 -12t57.5 -4l23 2l31 4l24 4l10 2l-2 19q0 20 11 37q31 113 112 112l39 -6q14 -6 29 -20l16 -33q6 -16 6 -39q0 -84 -67 -131l-43 -10l8 -37l6 -25 l14 -59l17 -51l88 -234h-113l-55 176q-6 -23 -41 -39l-88 -43l-86 -24q-37 -10 -86 -11q-135 0 -209 107l-20 41l-19 63l-104 9l-72 14q-80 14 -133 78q-43 49 -43 131q0 66 43 133q18 25 50 38t71 17q37 0 60.5 -7t49.5 -30l29 -32l12 -11l-55 -51l-16 12l-11 11l-32 18 l-33 6l-35 -6l-23 -16l-14 -29l-8 -33q0 -49 34 -89t95 -58l102 -29l19 -2h8q12 0 23 6l6 13l6 10l14 22l17 21l16 14l22 17l21 12l16 6l-43 35l-26 33q-47 57 -66 131l-4 51q0 113 58.5 168t146.5 55l332 2v201h-965zM528 102q0 -51 45 -94l52 -22l63 -11q29 0 62.5 9.5 t60.5 17.5t45 21l76 43l33 28l-33 133l-14 -4l-33 -2l-35 -4h-23l-43 2l-73 14l-31 9l-45 -15l-31 -12q-76 -41 -76 -113z" />
<glyph unicode="*" horiz-adv-x="415" d="M104 920l89 292h118l-118 -292h-89z" />
<glyph unicode="+" horiz-adv-x="4" d="M-528 -117h120v-114h-120v114z" />
<glyph unicode="," horiz-adv-x="911" d="M0 973v84h915v-84h-139v-385q0 -61 -43 -105q-18 -23 -47 -39l-53 -22l-78 61q41 0 78 39l24 43l11 45v363h-387v-504l491 -469l19 -37l6 -43q0 -70 -78 -115l-33 -8l-45 -12l-92 90l14 -4l33 -2l12 2h13l10 4l12 2l19 8l18 15l2 6l4 6l4 16q0 31 -31 56l-6 6l-10 6 l-475 448v529h-168z" />
<glyph unicode="-" horiz-adv-x="344" d="M104 0v135h144v-135h-144z" />
<glyph unicode="." horiz-adv-x="739" d="M0 973v84h756v-84h-80v-357q0 -66 -17 -106q-37 -104 -124 -135q-49 -16 -103 -17q-66 0 -100 17q-96 43 -137 135q-18 43 -19 96v367h-176zM285 608q0 -72 34 -119q37 -55 105 -55q74 0 113 58q10 14 22 53l8 69v359h-282v-365z" />
<glyph unicode="/" horiz-adv-x="559" d="M16 846q0 92 57.5 149.5t149.5 57.5q127 0 174 -99q10 -27 15 -61v-62h-93v64q0 82 -92 82q-43 0 -75 -39l-21 -41l-6 -47q0 -78 43 -133q16 -23 28.5 -35t32 -27.5t47.5 -19.5l70 20l80 9l37 -2l41 -5l45 -77l-137 -7q-59 0 -80 -10q-127 -29 -127 -149q0 -88 108 -131 l64 -9q123 0 252 97l45 41l53 57v-109q0 -16 -29 -36l-73 -52q-119 -82 -269 -82q-96 0 -180 62.5t-84 157.5q0 68 51 133l21 20l33 27q-63 31 -125 106l-41 74q-10 39 -15 76zM508 973v84h61v-84h-61z" />
<glyph unicode="0" horiz-adv-x="796" d="M59 504v71l9 91q8 51 13 77.5t15 53.5l21 51l26 45l29 41l35 35q82 59 186 59q57 0 80 -10q35 0 68 -23q35 -16 55 -41l47 -55l35 -76l29 -82l16 -102l6 -158q0 -41 -2 -78.5t-8 -70.5q-31 -188 -135 -287q-66 -61 -191 -61q-240 0 -307 268q-27 113 -27 252zM188 504 q1 -250 58 -332q25 -39 66.5 -63.5t80.5 -24.5q41 0 78 19.5t68 64.5q61 86 61 336q0 129 -16 209q-25 135 -111 190q-41 20 -80 21q-86 0 -135 -69t-65 -230z" />
<glyph unicode="1" horiz-adv-x="796" d="M156 649v123q39 14 96 49l84 68q33 27 70 69l47 70l82 2v-1030h-127v803q-25 -27 -52 -45l-102 -66l-33 -16l-33 -14z" />
<glyph unicode="2" horiz-adv-x="796" d="M43 0q0 33 4 43l12 43q16 57 82 135l31 37l35 35l98 84l135 119l88 94q41 53 58 117l4 38q0 70 -50.5 124.5t-142.5 54.5q-141 0 -186 -121q-14 -43 -14 -86l-129 16q12 139 97 217t234 78q141 0 230.5 -80t89.5 -205l-2 -34l-2 -27q0 -12 -8 -27l-11 -28l-16 -33 l-21 -33l-24 -35l-25 -28l-82 -84l-110 -99l-94 -77l-54 -52l-53 -65h504v-121h-678z" />
<glyph unicode="3" horiz-adv-x="796" d="M59 268l127 21q10 -63 33 -105q23 -53 98 -90l70 -10q88 0 149.5 61.5t61.5 151.5q0 43 -16 82q-12 43 -39 61l-33 25l-33 18l-37 11l-43 4q-31 0 -43 -4l-47 -11l15 113l20 -2h39l37 8q90 35 117 88q16 33 16 74q0 29 -12 63q-25 96 -154 97q-80 0 -125 -45 q-41 -35 -61 -138l-125 23q18 123 102 193.5t205 70.5q53 0 80 -10q74 -6 135 -66q10 -10 27.5 -33.5t31.5 -46.5l25 -75l2 -35q0 -37 -10 -64q-10 -49 -72 -106l-59 -37q53 -12 80 -35q113 -59 112 -219q0 -133 -97 -226t-249 -93q-170 0 -262 118q-53 68 -66 168z" />
<glyph unicode="4" horiz-adv-x="796" d="M18 246v114l467 666h105v-666h139v-114h-139v-246h-127v246h-445zM141 360h322v463z" />
<glyph unicode="5" horiz-adv-x="796" d="M59 268l134 11q18 -145 126 -183q31 -12 70 -12q76 0 154 68q63 76 63 182q0 59 -16 94q-18 61 -77.5 100t-125.5 39h-25q-49 0 -86 -28l-22 -17l-21 -14l-18 -19l-14 -20l-119 16l98 527h510v-121h-407l-56 -275l45 25l47 21l48 12l53 4q39 0 66.5 -4t68.5 -21 q109 -45 162 -172q23 -63 22 -135q0 -141 -82 -242q-98 -121 -268 -120q-139 0 -226 74.5t-104 209.5z" />
<glyph unicode="6" horiz-adv-x="796" d="M55 477q0 299 109 434q92 117 258 117q61 0 117 -18q115 -41 159 -164l17 -72l-127 -8l-15 47l-14 31l-18 26q-23 23 -49.5 34t-41 15.5t-36.5 4.5q-92 0 -160 -86l-14 -25l-25 -49l-16 -47l-11 -55l-8 -66l-2 -70q43 70 109 103l69 24l72 11q92 0 168 -55.5t113 -147.5 q10 -27 16 -60.5t6 -70.5q0 -23 -2 -46.5t-8 -47.5q-18 -90 -82 -158l-64 -53q-78 -41 -165 -41q-154 0 -256 110q-74 84 -93 256zM199 330l2 -35l4 -29l8 -30l14 -31l31 -49l43 -39l51 -25l56 -8q156 0 190 184l4 56q0 111 -56.5 170t-142.5 59q-49 0 -79 -16 q-92 -37 -121 -160z" />
<glyph unicode="7" horiz-adv-x="796" d="M68 891v123h665v-99l-49 -57l-47 -63l-49 -74l-49 -86l-50 -90l-38 -86l-17 -43l-16 -41l-15 -43l-34 -123l-15 -72l-10 -69l-2 -68h-131q0 33 2 64.5t8 62.5l15 78q18 111 75 250q41 102 78 166l43 75l43 70l45 65l51 58z" />
<glyph unicode="8" horiz-adv-x="796" d="M59 295l2 49q0 27 9 43l6 19l10 20l10 18l13 19q37 55 145 92q-78 23 -117 82q-20 27 -31 59l-8 68q0 41 4 53l15 47l24 45l37 43q86 76 215 76q137 0 218 -77t81 -191q0 -45 -10 -66q-6 -41 -43 -77.5t-98 -61.5q51 -12 82 -41q66 -41 96 -131q6 -25 10 -45.5t4 -46.5 q0 -39 -4 -65.5t-18 -59.5q-49 -117 -176 -160q-31 -10 -67 -16t-73 -6q-158 0 -239 84q-39 39 -72 104q-25 61 -25 123zM188 295l7 -53l18 -52l31 -47l43 -32l51 -21l59 -6q92 0 149.5 59.5t57.5 147.5q0 49 -16 82q-25 74 -115 112q-43 14 -80 15q-49 0 -82 -17 q-74 -25 -108 -110q-14 -47 -15 -78zM227 768q1 -41 11 -68q31 -68 86 -86q37 -12 73 -12q72 0 119 47l35 49q12 29 12 62q0 61 -49 117l-57 34q-25 12 -62 13q-72 0 -121 -47q-35 -35 -47 -109z" />
<glyph unicode="9" horiz-adv-x="796" d="M59 682q0 82 23 139q37 92 119 149.5t182 57.5q33 0 49 -4q20 0 43 -10l45 -15l45 -24q31 -18 72 -66q66 -80 86 -211q10 -82 10 -166v-24q0 -160 -40 -279.5t-124 -182t-202 -62.5q-72 0 -111 16q-51 12 -86 47q-68 55 -92 189l121 12q6 -45 22 -78q18 -47 84 -78l66 -8 l55 6q27 6 47 23l39 30q18 12 31 37l12 23l12 28l11 31l12 39l14 76l4 78v28q-51 -88 -172 -129l-74 -8q-125 0 -215 88q-43 45 -65.5 105.5t-22.5 142.5zM188 678q0 -98 58 -158q25 -29 69 -47q29 -10 43.5 -13t34.5 -3q143 0 187 137q6 25 10 46.5t4 47.5q0 164 -119 219 q-18 8 -35.5 12.5t-42.5 4.5q-43 0 -82 -17q-68 -31 -112 -133q-6 -27 -10.5 -48t-4.5 -48z" />
<glyph unicode=":" horiz-adv-x="1304" d="M0 973v84h1300v-84h-688v-256h248l58 22l57 9q166 0 242 -205q20 -68 20 -117q0 -180 -78 -317l-16 -29l-23 -31l-88 55l35 50l25 43q43 72 57 170l4 55q0 86 -49 152.5t-131 66.5q-39 0 -55 -10q-41 -6 -66 -64l-8 -49q0 -72 45 -115l18 -16l29 -16l-55 -82 q-53 25 -90 88q-16 31 -27 67l-8 72l6 57l18 54l-188 2l-4 -17l-4 -10q-18 -47 -109 -84l-22 -4l-31 -2h-31l-10 -2h-8l12 -25l39 -57l49 -74l47 -61l55 -70l156 -174l-88 -57l-53 55l-72 86l-94 117l-88 125l-100 147l-72 121l-21 39l-18 41l88 45l76 -131q29 -35 102 -47 q49 0 80 31q16 16 25 38l8 56v258h-504z" />
<glyph unicode=";" horiz-adv-x="1032" d="M0 973v84h1036v-84h-147v-973h-109v315q-109 -92 -250 -92q-162 0 -270 101q-121 111 -121 278l17 -6l18 -6q14 0 19 -4h20q72 0 127 43q51 45 51 133q0 55 -51 143l-51 66zM264 510l6 -21l9 -16l6 -16l6 -13q74 -147 225 -147q86 0 154 47q35 23 65 55l45 64v510h-360 l24 -41l17 -31l33 -80l10 -63q0 -135 -119 -209l-51 -21z" />
<glyph unicode="&#x3c;" d="M0 973v84h1049v-84h-261v-309h-368q-29 0 -41 -3.5t-35 -13.5q-63 -31 -90 -94q-14 -37 -14 -76q0 -197 172 -299l71 -33l101 -26l-15 14l-10 12l-41 74q-14 53 -14 86q0 92 56 141.5t142 49.5q74 0 133.5 -40t75.5 -112l4 -47q0 -115 -94 -188q-43 -31 -102 -54 q-37 -6 -63.5 -10t-51.5 -4q-178 0 -317 121q-80 68 -118 140.5t-38 170.5q0 113 76 188.5t192 75.5l281 2v234h-680zM596 297q0 -88 45 -135l18 -17l29 -16q80 0 113 102l10 66l-6 47l-19 39q-25 35 -71 35q-33 0 -51 -8q-20 -6 -37 -27l-23 -39z" />
<glyph unicode="=" horiz-adv-x="1073" d="M-4 973v84h1100v-84h-148v-973l-106 2v381l-490 -291l-63 92l508 265l-117 112q-121 117 -170 117q-76 0 -197 -64l-137 -71l-63 82l63 34l178 74l103 37q35 12 63 12q59 0 176 -116l58 -60l88 -94v461h-846z" />
<glyph unicode="&#x3e;" horiz-adv-x="1204" d="M0 973v84h1229v-84h-168v-973h-109v424h-219l-2 -59q0 -104 -80 -175q-51 -45 -97 -66.5t-89 -21.5l94 -59l109 -47l-64 -80l-160 98l-36 27l-33 27l-19 18l-49 2h-69q-59 0 -95 47q-8 16 -14 55l6 31l19 31l26 18l33 9l31 -3q12 0 30 -12l29 -16l31 -23l20 -22l27 -33 l70 14q39 6 51 17q123 55 123 178q0 27 -4 31l-13 20l-18 12l-25 4l-35 -4l-94 -24l-28 -4l-46 6q-20 6 -44.5 19.5t-47.5 33.5l-45 47q-90 94 -90 182q0 47 43 78l29 11l37 4l305 2v176h-549zM246 692l2 -20l10 -23l21 -35l36 -45l25 -26l27 -17l26 -8l35 -2l33 2 q33 0 55 8l53 9l35 4q27 0 45 -9l51 -26l9 -8l14 -11l229 2v486h-297v-260h-391l-14 -11z" />
<glyph unicode="?" horiz-adv-x="663" d="M0 973v84h668v-84h-320l-24 -23l-17 -16l-33 -53l-10 -56q0 -57 53 -102l45 -29l50 -8l176 2l37 -76h-113q-31 0 -66 -14q-131 -41 -131 -164q0 -68 58 -106l63 -33l76 -8q41 0 76 8t84 33l65 32l82 52q25 18 33 34v-110l-66 -41l-51 -27q-127 -66 -239 -65q-20 0 -44 1 t-61 15q-113 37 -162 123q-20 47 -20 92q0 84 57 141l23 23l35 29l-50 20l-32 21q-82 51 -82 149l4 41l14 47l21 41l20 25z" />
<glyph unicode="@" horiz-adv-x="1599" d="M258 -227l1024 1474l72 -51l-1041 -1493z" />
<glyph unicode="A" horiz-adv-x="811" d="M596 -109v1196h109v-1196h-109z" />
<glyph unicode="B" d="M0 973v84h1012v-84h-219v-305h-385q-43 0 -68 -17q-51 -25 -86 -104q-10 -37 -10 -74q0 -199 200 -301q55 -22 106 -22h5q102 0 179 62t77 159q0 63 -43 129l-18 20l-25 27l72 69q12 0 37 -24l45 -66q18 -37 34 -112l2 -43q0 -129 -100 -215t-260 -86q-164 0 -292 118.5 t-128 288.5q0 129 83 203t206 74l264 2v217h-688z" />
<glyph unicode="C" horiz-adv-x="471" d="M0 973v84h512v-84h-512zM131 510q0 117 86 203q41 41 94 65q29 12 55.5 16.5t53.5 4.5l47 -4l51 -9l10 -4l17 -4l14 -90q-8 12 -39 21l-53 8q-35 0 -47 -4l-45 -13l-41 -18l-31 -25l340 -233l12 29v-142q-18 -25 -47 -45l-53 -26q-25 -12 -57 -19l-60 -4 q-61 0 -111.5 17.5t-100.5 61.5t-74 95q-20 55 -21 119zM236 510q0 -49 13 -85t46 -65q29 -31 67 -49q47 -14 78 -14h33l23 8q16 4 26 9t29 20l20 14l25 23l-336 237l-8 -20l-4 -15l-10 -36z" />
<glyph unicode="D" horiz-adv-x="860" d="M0 973v84h864v-84h-133v-309l49 41l45 32l29 15l29 12l26 6l29 2q37 0 66 -14l10 -74l-13 2l-18 2l-35 -4l-53 -12q-102 -25 -152 -162q-12 -37 -12 -72v-438h-106v303q-76 -76 -191 -76q-123 0 -209 80t-86 203q0 109 86 195q59 55 146 77l55 6l55 -6l51 -16v-86l-47 16 l-45 6q-74 0 -123 -49t-65 -139q0 -86 51 -145q23 -29 59 -47q18 -8 33 -12.5t37 -4.5q74 0 150 76q43 43 43 82v510h-625z" />
<glyph unicode="E" horiz-adv-x="563" d="M0 973v84h580v-84h-215v-365h360v-88h-360v-155l-3 -15v-8l-10 -14l-33 -4q-20 0 -49 22l-69 74l-60 80l-20 55l6 23q8 10 23 18l10 4l20 6l80 2v365h-260z" />
<glyph unicode="F" horiz-adv-x="688" d="M37 565l78 -28l90 -9q115 0 201 59.5t86 178.5q0 74 -54.5 138.5t-138.5 64.5q-57 0 -92 -29q-20 -16 -31 -41l-8 -45q0 -59 65 -90l27 -8l39 -6v-86h-27q-123 0 -180 84q-29 41 -29 110q0 129 152 180q25 6 43 10.5t41 4.5q63 0 115 -23q109 -37 161 -153 q20 -57 21 -111q0 -219 -221 -287q-76 -20 -160 -20l-22 2q12 -31 43 -62l71 -53q90 -51 176 -51q166 0 283 125l47 51l51 76v-160l-57 -53l-47 -35l-68 -39l-65 -27l-68 -18l-67 -4q-53 0 -97.5 9t-93.5 36q-86 43 -162 131q-10 12 -20 27q-16 23 -29 45z" />
<glyph unicode="G" horiz-adv-x="1204" d="M0 973v84h1200v-84h-264v-213l33 -19l26 -14q55 -31 99 -117q34 -74 34 -159q0 -71 -18 -136q-31 -104 -131 -168q-47 -24 -110 -24h-5q-86 0 -147.5 45t-95.5 129q-25 -86 -88.5 -136t-151.5 -50q-184 0 -246 196q-16 55 -16 121q0 25 1 54.5t15 66.5q45 133 137 182 q51 23 115 23q90 0 143 -43q55 -31 95 -121l39 61l22 33l19 16q47 41 122 58v215h-827zM227 375l9 -37q18 -90 79 -125q31 -18 70 -18q96 0 158 122l18 52l19 73l-19 66q-25 84 -86 133q-41 29 -90 29q-98 0 -147 -142q-8 -41 -9.5 -59t-1.5 -31v-63zM676 414l12 -49 q41 -162 180 -162q80 0 117 78q12 31 19 69l8 92v58l-8 30q-6 45 -23 70q-37 74 -125 74q-92 0 -160 -144l-16 -41l-4 -47v-28z" />
<glyph unicode="H" horiz-adv-x="563" d="M8 866q0 90 60.5 140.5t146.5 50.5q135 0 182 -105q14 -43 15 -75v-277h336v-88h-336v-186l-2 -13l-17 -14l-20 -4q-18 0 -54 27q-49 35 -90 81l-77 93q-20 31 -27 55l6 16l16 17l19 10l14 4l123 2v287q0 37 -26.5 63.5t-65.5 26.5q-18 0 -41 -8l-35 -19l-22 -32l-9 -44 l2 -28l11 -31l4 -14l10 -19l-102 2l-9 15l-2 12l-8 29zM504 973v84h80v-84h-80z" />
<glyph unicode="I" horiz-adv-x="440" d="M0 973v84h453v-84h-189v-340q0 -88 60 -141q25 -23 57 -39l59 -11q115 0 189 129l14 47v-157l-45 -41l-51 -29l-29 -10l-24 -6l-29 -6h-27q-111 0 -194.5 77.5t-83.5 202.5v324h-160z" />
<glyph unicode="J" horiz-adv-x="1179" d="M51 479l162 96q20 6 39 23l45 29l20 14l27 21l-43 24l-27 23q-25 23 -53 69q-16 39 -16 84q0 86 62.5 138.5t148.5 52.5q76 0 144.5 -50.5t68.5 -140.5q0 -29 -3 -41t-15.5 -36.5t-43.5 -59.5l-26 -23l-35 -28l84 -49l139 -76l66 -27l129 94v357h-219v84h479v-84h-148 v-973h-112v508l-525 -404l-63 89l381 272l-146 76l-43 16l-67 35l-29 18l-147 -102l-164 -109zM299 862q0 -57 57 -106l37 -25l27 -8l29 14q12 6 20 17q51 39 51 100q0 29 -8 47q-6 18 -27 39l-39 25l-43 8q-39 0 -73 -29l-23 -35z" />
<glyph unicode="K" horiz-adv-x="1204" d="M0 973v84h1208v-84h-147v-973h-109v717h-653q-27 0 -29 -27l4 -26l15 -29l20 -35l15 -18l30 -37l27 -25l35 -20l41 -6l41 4l55 18l53 16l45 7q53 0 94 -50q25 -39 35 -114q0 -23 -3 -45.5t-21.5 -61.5t-61.5 -75q-14 -12 -45 -33q-45 -31 -59 -39q-51 -23 -94 -23 l204 -153l-84 -66l-208 201h-93q-92 0 -141 63q-8 16 -14 52l6 28l18 27l27 18l33 6q23 0 45 -14l57 -37l39 -37l14 -20l82 18l58 19q141 61 141 172l-6 26q-2 12 -15 21l-20 12l-27 4l-34 -4l-99 -24l-30 -4q-96 0 -195 106q-45 51 -72 100q-22 47 -22 95q0 39 30 69l35 17 l43 6l684 2v172h-952z" />
<glyph unicode="L" horiz-adv-x="759" d="M-20 973v84h808v-84h-221v-342l-4 -21l-12 -45q-12 -43 -68 -67l-43 -13q-18 0 -24 -4l-21 -2l-22 2q-12 0 -29 8l127 -192l55 -72l99 -112l43 -43l-84 -70q-37 12 -99 104l-249 363l-58 94l-37 64l-37 65l89 58l59 -115q37 -72 121 -72l45 6q18 6 26 21l15 30l4 44 l-2 30v281h-481zM592 616h360v-84h-288z" />
<glyph unicode="M" horiz-adv-x="1079" d="M0 973v84h1096v-84h-172v-268h-437l-12 -17l-2 -14l2 -23q4 -18 10 -24l17 -33l30 -43l31 -37l31 -25l31 -18l30 -4h13l8 2l141 41l51 12l35 4q45 0 82 -55l16 -51l7 -58q0 -43 -4.5 -72.5t-18.5 -66.5q-43 -123 -168 -168q-61 -20 -125 -20q-147 0 -299 119 q-127 96 -217 221l-63 86l-21 41l80 78q4 -18 21 -45q6 -16 55 -82q29 -43 47 -68q33 -37 49 -55l100 -97q43 -39 131 -83q61 -31 117 -31q90 0 152 63q31 33 45 74t14 102q0 68 -53 68q-18 0 -47 -10q-39 -6 -80 -27l-43 -14l-29 -4q-98 0 -196.5 126t-98.5 205l6 39 q6 18 23 27l35 14l45 4l354 2v185h-819z" />
<glyph unicode="N" horiz-adv-x="1204" d="M0 973v84h1208v-84h-260v-176l41 -23l43 -18q80 -61 80 -174q0 -59 -10 -106.5t-37 -100.5q-92 -186 -328 -275q-106 -39 -209 -39q-141 0 -227 79t-86 214q0 137 109 228l-31 12l-25 12l-22 10l-17 13q-94 72 -94 166q0 43 4 55l19 51l26 39q12 18 31 31zM240 803 q0 -61 67 -121q43 -29 88 -37l37 -4h23l26 2h13l14 2h12l12 4l39 -78l-6 -2l-8 2h-22q-86 0 -153 -61t-67 -148q0 -88 66 -159q76 -66 160 -66q111 0 202 62l39 26l49 37l-51 62l-45 82l-33 90l-10 86q0 102 74 168l37 20l41 21v182h-496q-35 0 -76 -80l-24 -49zM788 573 q0 -33 2.5 -49t14.5 -53t41 -80l22 -33l35 -36l12 10l25 30q23 29 57 117q6 23 10.5 46.5t4.5 56.5l-6 47q-10 86 -107 86q-47 0 -84 -43l-20 -45z" />
<glyph unicode="O" horiz-adv-x="468" d="M0 973v84h475v-84h-475zM131 510q0 119 81 208t196 89l36 -2l41 -6l35 -8q20 0 29 -5l22 -106l-22 12l-19 8l-55 17l-55 6q-45 0 -76 -14q-51 -18 -88 -107q-10 -37 -10 -74q0 -145 108 -200q51 -14 82 -15h23l39 9q35 6 61 28q68 31 100 88v-119l-47 -34l-45 -31 l-63 -23l-64 -6q-121 0 -213 80q-49 43 -73 92q-10 23 -16.5 50.5t-6.5 62.5z" />
<glyph unicode="P" horiz-adv-x="663" d="M0 973v84h676v-84h-676zM100 696v84h625v-84h-137l-60 -41l-41 -32q-100 -82 -100 -177q0 -102 80 -137l57 -8q129 0 240 143l72 95q25 31 24 55v-182q-6 -16 -33 -43l-71 -60q-80 -66 -176 -86l-60 -6q-102 0 -170 59q-31 27 -50 71t-19 95q0 109 102 211q23 23 53 41z " />
<glyph unicode="Q" horiz-adv-x="1280" d="M0 973v84h1292v-84h-571v-305l20 18l43 31q63 45 123 45q78 0 148.5 -41t103.5 -115q20 -55 21 -100q0 -125 -101 -264l-37 -41l-69 -72l-88 72l53 39l39 36q94 106 94 238q0 63 -37 113q-45 51 -123 51q-37 0 -67 -23q-43 -27 -70 -69l-24 -39l-29 -53v-494h-109v408 q-18 -25 -45 -37l-47 -23l-51 -14l-51 -4q-37 0 -54.5 3t-52.5 15q-102 43 -143 141q-8 20 -14.5 50t-6.5 59v375h-147zM252 584q0 -92 47 -140q10 -10 43 -26l66 -8q86 0 145 57q47 47 59 102v404h-360v-389z" />
<glyph unicode="R" horiz-adv-x="563" d="M0 973v84h567v-84h-567zM117 530q0 80 43 143.5t129 63.5l463 2v-80h-408q-39 0 -59 -10q-66 -12 -66 -102q0 -72 39 -161t102 -165l97 -108q31 -29 51 -35l-72 -66l-94 84l-66 72l-67 92q-92 141 -92 270z" />
<glyph unicode="S" horiz-adv-x="12" d="M-774 1327l76 84l379 -354h-52zM-547 1520l96 53l328 -516h-72z" />
<glyph unicode="T" horiz-adv-x="835" d="M0 973v84h836v-84h-836zM121 723l88 70q-6 -6 -6 -19q0 -20 18 -61l82 -181q117 -258 285 -258q86 0 117 99l12 69q0 53 -45 136q-35 70 -86 120l-31 31l465 2v-80h-293l27 -33l37 -67l20 -57l8 -43q0 -102 -55 -175q-69 -81 -181 -81h-3q-135 0 -256 135q-16 18 -41 51 q-16 23 -43 61q-33 57 -70 142l-41 100z" />
<glyph unicode="U" horiz-adv-x="540" d="M0 973v84h549v-84h-549zM121 631q0 35 33 59l18 6l25 2l534 2v-84h-354v-180l-2 -10v-10q0 -12 -13 -19l-30 -4q-8 4 -13 6q-20 10 -32 19l-76 76l-39 45q-18 25 -51 92z" />
<glyph unicode="V" d="M12 973v84h1008v-84h-211v-318h-365q-29 0 -41 -3t-34 -13q-59 -27 -97 -100q-12 -25 -12 -70q0 -121 98.5 -226.5t237.5 -105.5q131 0 221 90l55 70l89 -49q-41 -68 -105 -115q-111 -80 -244 -80q-186 0 -323 128t-137 296q0 115 80.5 191.5t187.5 76.5l285 3v225h-693z " />
<glyph unicode="W" horiz-adv-x="24" d="M-690 1470l106 3q0 -94 64 -156q63 -57 160 -57q141 0 202 118q16 45 17 92l104 3q0 -115 -94 -207q-41 -41 -98 -64q-66 -20 -133 -20q-143 0 -223.5 77.5t-104.5 210.5z" />
<glyph unicode="X" horiz-adv-x="587" d="M0 973v84h588v-84h-152v-545q-6 -37 -45 -43q-27 0 -63 23l-82 69q-78 84 -90 150q0 14 4 18l14 12l8 2l13 5h8l10 2l119 2v305h-332z" />
<glyph unicode="Y" horiz-adv-x="788" d="M0 973v84h793v-84h-793zM235.5 650q83.5 79 217.5 79q18 0 42.5 -1t61.5 -15q51 -12 92 -45l56 -43q18 -12 20 -27l18 14l17 13l39 26l28 19l47 20l52 17l20 4l27 4v-94l-53 -15l-64 -31l-27 -18l-28 -27l-35 -41l-31 -49l-30 -59l-17 -47l-88 51l4 25l17 30l34 60l13 30 q-12 39 -90 72l-70 29l-64 10q-29 0 -40 -2t-36.5 -13.5t-60.5 -43.5q-55 -72 -55 -144q0 -154 176 -266l72 -45l104 -49l-51 -86q-104 0 -277 178q-124 130 -124 274q0 127 83.5 206z" />
<glyph unicode="Z" horiz-adv-x="10" d="M-383 1374q0 86 66.5 135.5t156.5 49.5l60 -7l55 -18l-2 -82l-14 4l-15 6l-39 8l-43 5q-59 0 -96 -42t-37 -104q0 -45 17.5 -96t48.5 -92l28 -39l39 -47l-78 2q-16 12 -28 28l-47 74l-27 55l-27 58q-18 55 -18 102z" />
<glyph unicode="[" horiz-adv-x="960" d="M0 973v84h977v-84h-453v-293q0 -92 -84 -135l-73 -21l-95 -6l50 -108l49 -76q55 -88 152.5 -136t201.5 -48q57 0 105.5 10t107.5 37l70 30l51 31q53 35 82 64v-107l-92 -59l-109 -47l-115 -33l-108 -10q-92 0 -148 16q-150 41 -258 176q-76 96 -118 193l-35 81l-58 166 l93 50l34 -115l13 -12l12 -9l33 -14l39 -4l41 6q37 12 49 47l6 39v287h-420zM696 594q0 80 56.5 142.5t140.5 80.5l47 4l45 -6l47 -16l25 -74l-47 12l-52 6q-41 0 -61 -10q-53 -6 -86 -69q-10 -27 -10 -66q0 -98 82 -129l53 -8q37 0 59 8q55 6 111 61q16 16 35 48v-121 l-33 -27l-27 -16l-77 -33l-37 -8l-35 -2q-145 0 -219 131q-16 45 -17 92z" />
<glyph unicode="\" horiz-adv-x="835" d="M51 1251l60 37l49 29q121 70 252 69q98 0 192 -54t137 -144q6 -14 16.5 -50t10.5 -75q0 -141 -115 -256q-150 -150 -258 -150v-297h-106v345q55 0 190 86q184 117 185 260q0 94 -75 170.5t-169 76.5q-92 0 -203 -65q-39 -23 -60.5 -39t-27.5 -33zM285 0v113h118v-113 h-118z" />
<glyph unicode="]" horiz-adv-x="368" d="M76 -172l84 289h125l-121 -289h-88z" />
<glyph unicode="^" horiz-adv-x="391" d="M139 944l121 293h88l-84 -293h-125z" />
<glyph unicode="_" horiz-adv-x="1671" d="M0 973v84h1692v-84h-811v-428l247 114l-12 21l-2 29q0 23 10.5 56.5t57.5 59.5l47 13q106 0 106 -127q0 -35 -45 -72l-20 -12l-27 -17l158 -198l-66 -19l-43 -16q-109 -49 -108 -139q0 -37 12 -68q10 -18 37 -45l47 -23l59 -8q31 0 44.5 3t35.5 14q53 23 80 49l27 26 l35 39l75 -86l-45 -39l-37 -24l-53 -27l-49 -18l-53 -13l-51 -4q-33 0 -55.5 3t-57.5 14q-164 49 -164 211q0 90 57 145q70 63 148 64l-113 137l-282 -135v-453h-109v408l-440 -328l-68 92l461 299l-107 115q-98 109 -153 116q-57 0 -195 -69l-139 -72l-63 82l47 25l127 57 l147 57l86 21q23 0 72 -31q55 -41 108 -98l88 -99q18 -20 29 -45v443h-772z" />
<glyph unicode="`" horiz-adv-x="10" d="M-526 -244q0 51 16 90q20 74 113 119q25 6 43 10.5t41 4.5h170v-84h-146q-80 0 -117 -76l-12 -56q0 -76 56 -112q55 -45 129 -45q57 0 94 18l47 25l22 22l54 -80l-33 -20l-31 -14q-76 -35 -170 -35q-63 0 -96 16q-113 31 -158 119q-23 49 -22 98z" />
<glyph unicode="a" horiz-adv-x="4" d="M-195 1286v133h142v-133h-142z" />
<glyph unicode="b" horiz-adv-x="911" d="M0 973v84h924v-84h-232v-268h-428l-6 -9l-6 -10l2 -29l8 -22l19 -31l30 -39l60 -65l32 -27l29 -6q39 0 100 18l54 19l49 14l41 4q49 0 82 -45q8 -12 22 -51l8 -55q0 -70 -22 -129q-29 -80 -109 -144l-51 -37q-55 -26 -95 -26h-3l22 -25l21 -14l45 -39l37 -33l82 -53 l57 -35l-55 -88l-31 21l-22 14q-10 6 -28 18.5t-34 28.5l-104 90l-52 51l-38 35l-17 21h-72q-29 0 -67 10q-14 0 -31 10q-96 31 -96 131l6 35q6 18 21 33l28 20l39 8q66 0 150 -79l26 -35l37 -45q41 0 72 10q33 4 51 16q125 55 125 197l-2 39q0 27 -5 36t-9 13l-21 8l-33 -8 l-67 -25l-78 -22l-57 -8q-82 0 -179.5 132t-97.5 195l6 31l23 29l33 20l34 8l357 2v185h-584z" />
<glyph unicode="c" horiz-adv-x="911" d="M0 973v84h907l4 -84h-147v-973h-109v311q-18 -25 -47 -45l-53 -26q-25 -12 -57 -19l-60 -4q-61 0 -111.5 17.5t-100.5 61.5t-74 95q-20 55 -21 119q0 117 86 203q41 41 94 65q29 12 55.5 16.5t53.5 4.5l47 -4l51 -9l10 -4l17 -4l14 -90q-8 12 -39 21l-53 8q-35 0 -47 -4 l-45 -13l-41 -18l-31 -25l340 -233l12 45v504h-655zM236 510q0 -49 13 -85t46 -65q29 -31 67 -49q47 -14 78 -14h33l23 8q16 4 26 9t29 20l20 14l25 23l-336 237l-8 -20l-4 -15l-10 -36z" />
<glyph unicode="d" horiz-adv-x="1304" d="M0 973v84h1321v-84h-590v-309l37 34l25 21q63 51 143 51q115 0 201 -78q80 -72 80 -186q0 -117 -107 -250l-45 -55l-61 -68l-89 68q14 4 33 22q86 86 133 193q23 57 23 98q0 57 -21 100q-37 72 -135 72q-84 0 -155 -90q-23 -31 -45 -80q-16 -45 -17 -78v-438h-106v303 q-76 -76 -191 -76t-205 81t-90 202q0 123 84 199q61 55 144 73l55 6l55 -6q41 -6 55 -16v-86l-20 8l-10 6l-31 8l-31 5q-86 0 -135 -61.5t-49 -145.5q0 -129 100 -181q43 -14 76 -14q74 0 150 76q43 43 43 82v510h-625z" />
<glyph unicode="e" horiz-adv-x="966" d="M0 973v84h999v-84h-153v-973h-107v516h-374v-143l2 -23l-5 -12l-16 -12l-27 -4q-31 0 -81 53q-37 37 -105 123q-18 27 -20 53l6 27q8 10 22 18l11 4l20 6l88 2v365h-260zM365 608h374v365h-374v-365z" />
<glyph unicode="f" horiz-adv-x="442" d="M0 973v84h186l-8 18l-12 51l-12 56l-2 32q0 55 9 92t38 76q55 76 143 113q63 23 129 23q156 0 350 -119q80 -49 144 -101l147 -122l59 -62l62 -59l-137 2l-52 45l-49 49q-37 37 -73 63l-48 35l-122 82q-63 43 -145.5 71t-141.5 28q-49 0 -82 -17q-74 -25 -117 -119 q-14 -51 -14 -96l2 -41l10 -47l12 -39l9 -16l178 2v-84h-174v-973h-109v973h-180z" />
<glyph unicode="g" horiz-adv-x="931" d="M0 973v84h973v-84h-205v-264h-487q-18 0 -27 -11l-8 -18l8 -35q4 -20 27 -43l8 -16l12 -15l25 -32l20 -25l14 -8l31 6l33 6l61 8l47 4q33 0 61 -2t66 -10q115 -31 156 -104q20 -45 21 -92q0 -41 -9.5 -69t-33.5 -52l-43 -33l-15 -10l-80 61l11 4l10 6l8 4l6 7 q31 31 37 82q0 106 -119 120l-84 9q-190 0 -241 -119q-18 -37 -19 -82q0 -59 55 -115q59 -53 170 -84l175 -43l47 -2q10 0 14 1t6 3l-39 -78q-8 -4 -37 -8q-63 0 -159 33l-78 27q-266 90 -266 278q0 49 32 103q16 27 39 49l49 49l-43 45l-26 35q-39 51 -56 88l-16 76l6 36 l23 29l30 16l37 7l432 2v176h-659z" />
<glyph unicode="h" horiz-adv-x="440" d="M-428 1223q0 31 2 45t16 55q59 174 228 174q72 0 151 -55q96 -66 162 -166l59 -92l74 -129l195 2v-84h-172v-973h-107v973h-180v84h156l2 8q0 49 -164 238q-97 114 -171 114h-1q-66 0 -103 -51q-18 -29 -34 -86l-2 -39q0 -27 7 -49.5t12 -37.5t11 -28l27 -51l14 -20 l-119 2l-24 33l-21 40l-14 46z" />
<glyph unicode="i" horiz-adv-x="911" d="M0 973v84h940v-84h-168v-973h-108v408l-37 -31l-27 -19q-72 -49 -156 -49q-178 0 -264 174q-20 61 -20 111v379h-160zM264 580q0 -117 115 -181l61 -10q61 0 125 39l39 31l27 28l33 43v443h-400v-393z" />
<glyph unicode="j" horiz-adv-x="761" d="M-41 973v84h838v-84h-164v-268q0 -133 -139 -189q-41 -14 -82 -14l-39 2q-29 4 -37 10l147 -211l58 -72l106 -116l45 -45l-76 -70q-31 10 -114 111q-100 117 -199 264l-63 94l-60 98l-43 74l-41 74l84 61l84 -143q33 -51 117 -51q68 0 99.5 29.5t43.5 103.5v258h-565z " />
<glyph unicode="k" horiz-adv-x="440" d="M-20 973v84h507v-84h-198v-973h-109v973h-200z" />
<glyph unicode="l" horiz-adv-x="1204" d="M-20 973v84h1249v-84h-168v-973h-109v532h-288l-72 84h360v357h-385v-342l-4 -21l-12 -45q-12 -43 -68 -67l-43 -13q-18 0 -24 -4l-21 -2l-22 2q-12 0 -29 8l127 -192l55 -72l99 -112l43 -43l-84 -70q-37 12 -99 104l-249 363l-58 94l-37 64l-37 65l89 58l59 -115 q37 -72 121 -72l45 6q18 6 26 21l15 30l4 44l-2 30v281h-481z" />
<glyph unicode="m" horiz-adv-x="1107" d="M-20 973v84h1148v-84h-288l24 -35l17 -25q18 -25 32 -71l11 -68q0 -117 -109 -188l41 -19q43 -23 87 -93.5t44 -164.5q0 -57 -22 -108q-72 -166 -277 -166q-156 0 -307 170q-115 129 -201 317l-55 123l-12 53l92 58l31 -84l32 -82l49 -111l33 -61q135 -240 275 -289 q31 -10 63 -10q59 0 93 17.5t61 49.5q35 53 35 136q0 70 -28 126t-89 87q-37 18 -80 18l-188 2l-39 88h223l59 6q27 6 39 17q49 35 49 116q0 57 -53 129l-22 25l-31 35z" />
<glyph unicode="n" d="M0 973v84h1028v-84h-223v-277h-377q-49 0 -102 -49l-33 -51l-10 -55q0 -186 178 -254l74 -17l106 -8l-4 12v11q0 23 -4 30l-2 23q0 35 4 45l18 41q27 39 86 39q20 0 37 -10q35 -12 55 -62l9 -41q0 -66 -39 -102l-17 -15l-24 -16l51 -113l35 -59l35 -47l14 -16l16 -23 h-135l-55 109l-57 120l-17 -4h-14q-162 0 -263.5 48.5t-145.5 122t-44 184.5q0 94 59.5 168.5t145.5 74.5l303 2v189h-688z" />
<glyph unicode="o" horiz-adv-x="911" d="M-20 973v84h976v-84h-188v-973h-109v319l-47 -34l-45 -31l-63 -23l-64 -6q-121 0 -213 80q-49 43 -73 92q-10 23 -16.5 50.5t-6.5 62.5q0 119 81 208t196 89l36 -2l41 -6l35 -8q20 0 29 -5l22 -106l-22 12l-19 8l-55 17l-55 6q-45 0 -76 -14q-51 -18 -88 -107 q-10 -37 -10 -74q0 -145 108 -200q51 -14 82 -15h23l39 9q35 6 61 28q68 31 100 88v535h-679z" />
<glyph unicode="p" horiz-adv-x="1107" d="M0 973v84h1116v-84h-143v-973h-109v408l-33 -41l-73 -60q-41 -33 -123 -65q-61 -25 -115 -25q-102 0 -170 59q-31 27 -50 71t-19 95q0 109 102 211q23 23 53 41l-336 2v84h625v-84h-137l-60 -41l-41 -32q-100 -82 -100 -177q0 -102 80 -137l57 -8q119 0 242 115l43 41 q55 59 55 86v430h-864z" />
<glyph unicode="q" horiz-adv-x="10" d="M-778 -285l69 88l76 -55l58 -39q141 -94 266 -94q150 0 213 102q14 29 14 68q-4 27 -14 51l-31 41q-12 14 -37 31l-47 8q-49 0 -106 -39l-45 -45l-82 72l24 22l53 31q53 31 127 43l41 2q98 0 156 -57q33 -33 49 -72q14 -53 14 -94q0 -128 -110 -195q-96 -59 -223 -59 q-100 0 -234 55l-80 37l-65 37q-61 37 -86 61z" />
<glyph unicode="r" d="M-20 973v84h1064v-84h-188v-973h-108v680h-383q-33 0 -64 -12q-45 -8 -70 -70l-8 -51q0 -139 87 -278.5t155 -182.5q18 -12 39 -12l-72 -74q-6 2 -11 4t-15 12l-58 56l-84 94l-35 49l-30 51q-43 74 -62.5 140.5t-19.5 140.5q0 92 47 153q16 25 55 45.5t80 20.5l449 2v205 h-768z" />
<glyph unicode="s" horiz-adv-x="6" d="M-668 1495l72 78l420 -516h-68z" />
<glyph unicode="t" horiz-adv-x="1304" d="M0 973v84h1321v-84h-168v-973h-109v633h-317q12 -6 27 -41l37 -90l20 -72l8 -55q0 -18 -1 -39t-15 -57q-29 -88 -121 -129q-45 -16 -102 -17q-137 0 -263 146q-84 102 -149 272l-39 106l-8 45l88 66v-16l4 -27l37 -115q45 -139 127 -254q100 -143 211 -143q61 0 95 46 t34 112q0 47 -19 106q-25 76 -59 121l-53 78q-12 20 -31 35l489 2v260h-1044z" />
<glyph unicode="u" d="M0 973v84h1036v-84h-168v-973h-108v608h-383v-176l-2 -29q0 -8 -2 -11t-19 -17l-22 -4q-12 0 -45 26l-76 80q-31 35 -66 90q-18 31 -24 56q0 35 33 59l18 6l25 2l563 2v281h-760z" />
<glyph unicode="v" horiz-adv-x="1179" d="M8 489l84 56l64 -113l51 -76q125 -186 262 -186q94 0 145 115q14 37 15 69q0 33 -2 47.5t-15 36.5q-14 55 -73.5 87t-118.5 32h-35q-25 0 -43 -8l-10 -4l-13 -2l-34 78h49q29 6 39 8q94 25 145 102q23 39 23 82q0 39 -9 61q-12 55 -69 82q-37 14 -72 15q-51 0 -115 -39 l-43 -33l-32 -31l-41 -43l-80 64q2 6 5 10t17 19l68 55q100 82 229 82q98 0 174 -76q63 -68 64 -166q0 -129 -117 -195l10 -2l19 -4l24 -10l35 -16l19 -11l20 -8l23 -12l22 -8l47 -17l54 -4l41 2l71 19l27 10v416h-197v84h449v-84h-148v-973h-104v465l-31 -8l-31 -6l-26 -5 h-17l-36 3l-64 18l-22 10l6 -20l6 -15l10 -47l4 -45q0 -215 -209 -256l-57 -4q-43 0 -81 10.5t-83 36.5q-80 47 -160 142q-133 156 -133 210z" />
<glyph unicode="w" horiz-adv-x="4" d="M-463 -227q0 84 74 161q78 66 172 66q176 0 344 -193q53 -59 82 -114l29 -53l30 -56l-92 -49q0 25 -26 72l-41 63l-37 54q-68 96 -136.5 140t-148.5 44q-61 0 -92 -37t-39 -104q0 -88 72 -121l51 -11l33 5l34 14l15 8l16 10l55 -84l-26 -12l-66 -18l-65 -7 q-96 0 -167 62.5t-71 159.5z" />
<glyph unicode="x" horiz-adv-x="1071" d="M0 973v84h1098v-84h-230v-973h-108v973h-324v-584q-4 -20 -16 -31l-29 -8q-20 0 -63 25q-92 68 -150 164q-22 37 -22 65q0 16 4 23l12 10l18 2l23 2l119 2v330h-332z" />
<glyph unicode="y" horiz-adv-x="1232" d="M0 973v84h1249v-84h-170v-973h-106v621l-53 -15l-64 -31l-27 -18l-28 -27l-35 -41l-31 -49l-30 -59l-17 -47l-88 51l4 25l17 30l34 60l13 30q-12 39 -90 72l-70 29l-64 10q-29 0 -40 -2t-36.5 -13.5t-60.5 -43.5q-55 -72 -55 -144q0 -154 176 -266l72 -45l104 -49 l-51 -86q-104 0 -277 178q-124 130 -124 274q0 127 83.5 206t217.5 79q18 0 42.5 -1t61.5 -15q51 -12 92 -45l56 -43q18 -12 20 -27l18 14l17 13l39 26l28 19l47 16l52 14l20 2l27 5v266h-973z" />
<glyph unicode="z" horiz-adv-x="10" d="M-801 80l570 356v-84l-500 -352z" />
<glyph unicode="{" horiz-adv-x="641" d="M20 406q0 49 23 89t70 87l39 30l53 37q-14 6 -41 33l-41 63q-12 20 -27 62l-8 61q0 86 61.5 135.5t151.5 49.5t160.5 -50.5t70.5 -146.5q0 -55 -38 -108l-33 -35l-31 -27l-43 -29l19 -8l18 -2l63 -10l72 -2l82 2q41 0 64 10l59 21q35 10 67 34v-94l-71 -33l-58 -16 l-63 -10l-80 -2l-78 6l-98 20l-43 11l-55 18q-12 0 -33 -14l-47 -37q-76 -72 -76 -154q0 -51 21 -90q12 -27 49 -49l55 -22l72 -7h41l10 4l-4 9v32l6 50l18 32q16 16 29 19l39 8l43 -6q14 -6 35 -27l20 -35l8 -41l-6 -34l-14 -27l-25 -20l-34 -11l22 -39l31 -32l28 -27 l43 -31l-88 -61l-18 14l-41 41l-29 43l-10 19l-10 20l-8 25l-21 -9l-14 -2l-37 -8l-29 -2q-39 0 -57 3t-57 16q-100 37 -156 141q-20 61 -21 113zM193 864q0 -70 47 -123l18 -20l31 -23q27 6 39 17l28 16q68 49 68 133q0 23 -8 39q-6 16 -27 35l-39 20l-43 9q-29 0 -45 -9 l-37 -18q-16 -12 -24 -33zM600 973v84h51v-84h-51z" />
<glyph unicode="|" horiz-adv-x="1204" d="M0 973v84h1217v-84h-150v-973h-106v297q-20 -53 -207 -139q-92 -43 -197 -60l-61 -4q-188 0 -263 146q-14 51 -14 77q0 39 8 64q6 39 23 55l12 15l19 18q-39 0 -103 66q-35 35 -47 92l-2 35q0 98 90 141l37 8l55 6l264 2v154h-575zM231 653q0 -41 33 -82l43 -41 q18 -12 37 -12l14 4l11 4l55 19l37 6h76l59 -4l37 -82l-12 -2h-70l-12 2q-129 0 -172 -40t-43 -103q0 -68 55 -105l59 -31l70 -8q135 0 303 109l80 51q55 39 70 63v572h-285v-242h-332q-35 0 -47 -4q-37 0 -57 -29z" />
<glyph unicode="}" d="M0 973v84h1004v-84h-220v-281h-399q-33 0 -58.5 -7t-43.5 -26q-18 -14 -27 -47l-8 -65q0 -160 180 -234q55 -16 113 -16l20 2l31 4l37 6l-2 19q0 18 10 37q31 113 111 112q66 0 86 -59l6 -37q0 -51 -29 -94q-14 -25 -39 -39l-45 -10l8 -37l6 -25l15 -59l22 -70l8 -20 l7 -21l6 -18l10 -43l4 -35q0 -20 -4 -29l-10 -22l-19 -17l-28 -10l-60 176l-30 -26l-66 -43q-51 -27 -109.5 -45.5t-113.5 -18.5q-90 0 -179.5 68.5t-89.5 167.5q0 68 50 120q53 53 122 66l-40 35l-27 33q-14 18 -27 38q-4 6 -26 50q-8 27 -12.5 47t-4.5 47q0 113 58.5 168 t146.5 55l332 2v201h-676zM213 102q0 -55 47 -100q14 -12 51 -29l62 -10q33 0 49 2t49 15q37 8 109 45l65 41q27 20 31 28l-33 133l-25 -6l-51 -4h-22l-35 2l-154 17l-59 -7q-53 -16 -74 -63q-6 -14 -8 -24.5t-2 -39.5z" />
<glyph unicode="~" horiz-adv-x="10" d="M-315 -121l92 45l223 -297l-43 -47z" />
<glyph horiz-adv-x="1011" d="M8 866q0 90 60.5 140.5t146.5 50.5q135 0 182 -105q14 -43 15 -75v-277h321v373h-201v84h508v-84h-198v-973h-109v512h-321v-186l-2 -13l-17 -14l-20 -4q-18 0 -54 27q-49 35 -90 81l-77 93q-20 31 -27 55l6 16l16 17l19 10l14 4l123 2v287q0 37 -26.5 63.5t-65.5 26.5 q-18 0 -41 -8l-35 -19l-22 -32l-9 -44l2 -28l11 -31l4 -14l10 -19l-102 2l-9 15l-2 12l-8 29z" />
<glyph unicode="&#xa1;" horiz-adv-x="24" d="M-690 1470l106 3q0 -94 64 -156q63 -57 160 -57q141 0 202 118q16 45 17 92l104 3q0 -115 -94 -207q-41 -41 -98 -64q-66 -20 -133 -20q-143 0 -223.5 77.5t-104.5 210.5zM-424 1432v112h121v-112h-121z" />
<glyph unicode="&#xa2;" horiz-adv-x="6" d="M-1077 1495l71 78l420 -516h-67z" />
<glyph unicode="&#xa3;" horiz-adv-x="1294" d="M0 973v84h1368v-84h-199v-973h-108v973h-537v-293q0 -92 -84 -135l-73 -21l-95 -6l50 -108l49 -76q55 -88 152.5 -136t201.5 -48q135 0 240 79l90 93v-107q-25 -31 -60 -59l-34 -21l-46 -26l-96 -33l-102 -10q-92 0 -148 16q-150 41 -258 176q-76 96 -118 193l-35 81 l-58 166l93 50l34 -115l13 -12l12 -9l33 -14l39 -4l41 6q37 12 49 47l6 39v287h-420zM696 594q0 80 56.5 142.5t140.5 80.5l47 4l45 -6l47 -16l25 -74l-47 12l-52 6q-41 0 -61 -10q-53 -6 -86 -69q-10 -27 -10 -66l6 -61q12 -45 49 -68l39 -8q49 0 86 31l41 36l33 50v-121 l-6 -27l-9 -16q-23 -29 -71 -41l-37 -2q-145 0 -219 131q-16 45 -17 92zM715 233l241 162l17 -78l-174 -143z" />
<glyph unicode="&#xa4;" horiz-adv-x="450" d="M33 88h270v-53h-197v-144l29 -32l27 6l16 2l19 2h28l45 -64l-67 -6l-60 -18q-49 -20 -57 -66v-8l4 -12l4 -8l8 -11q16 -16 35 -24l45 -8q59 0 123 31.5t70 45.5v-88l-21 -12l-37 -18l-47 -17l-39 -10q-51 0 -102 31t-72 78q-10 23 -16 65l2 29l12 26q6 16 21 25l30 18 l-73 60v180z" />
<glyph unicode="&#xa5;" horiz-adv-x="1179" d="M0 973v84h1192v-84h-148v-973h-108v449l-41 -13l-41 -2l-35 2l-33 6q-29 4 -36 11l-33 16q-4 -25 -10.5 -47.5t-24.5 -65.5l-16 -49q-90 -154 -267 -153q-109 0 -278 92q-27 12 -66 49l70 78q4 -12 27 -31l63 -43q23 -14 50.5 -28.5t51 -21.5t42 -11.5t40.5 -4.5 q92 0 154 76q35 49 53 133l4 50q0 164 -116 223q-41 18 -86 18q-18 0 -41 -8l-45 -18l-21 -13l-25 -16l-71 82l39 14l28 14l72 25l55 8q158 0 252 -137l31 -57l31 -80l18 -8l19 -7l32 -12l29 -2q39 0 66.5 7t58.5 26v422h-936z" />
<glyph unicode="&#xa7;" horiz-adv-x="450" d="M33 88h270v-53h-197v-144l29 -32l27 6l16 2l19 2h28l45 -64l-67 -6l-60 -18q-49 -20 -57 -66v-8l4 -12l4 -8l8 -11q16 -16 35 -24l45 -8q59 0 123 31.5t70 45.5v-88l-21 -12l-37 -18l-47 -17l-39 -10q-51 0 -102 31t-72 78q-10 23 -16 65l2 29l12 26q6 16 21 25l30 18 l-73 60v180z" />
<glyph unicode="&#xa8;" horiz-adv-x="440" d="M-260 1495l76 78l415 -516h205v-84h-147v-973h-109v973h-180v84h135z" />
<glyph unicode="&#xa9;" horiz-adv-x="440" d="M-416 1327l76 84l395 -354h101l-344 463l96 53l323 -516h205v-84h-147v-973h-109v973h-180v84z" />
<glyph unicode="&#xaa;" horiz-adv-x="24" d="M-911 -293l340 369h110l322 -369h-121l-252 313l-276 -313h-123z" />
<glyph unicode="&#xab;" horiz-adv-x="663" d="M-4 973v84h760v-84h-760zM113 625l63 34l178 74l103 37q35 12 63 12q55 0 187 -133l141 -143v-119l-496 -295l-63 92l508 265l-117 112q-121 117 -170 117q-76 0 -197 -64l-137 -71z" />
<glyph unicode="&#xad;" horiz-adv-x="344" d="M104 0v135h144v-135h-144z" />
<glyph unicode="&#xae;" horiz-adv-x="440" d="M-260 1495l76 78l415 -516h205v-84h-147v-973h-109v973h-180v84h135z" />
<glyph unicode="&#xb1;" horiz-adv-x="24" d="M-383 1374q0 86 66.5 135.5t156.5 49.5l60 -7l55 -18l-2 -82l-14 4l-15 6l-39 8l-43 5q-59 0 -96 -42t-37 -104q0 -45 17.5 -96t48.5 -92l28 -39l39 -47l-78 2q-16 12 -28 28l-47 74l-27 55l-27 58q-18 55 -18 102zM-176 1233v115h125v-115h-125z" />
<glyph unicode="&#xb3;" horiz-adv-x="1204" d="M0 973v84h1200v-84h-276v-268h-437l-12 -17l-2 -14l2 -23q4 -18 10 -24l17 -33l30 -43l31 -37l31 -25l31 -18l30 -4h13l8 2l141 41l51 12l35 4q45 0 82 -55l16 -51l7 -58q0 -43 -4.5 -72.5t-18.5 -66.5q-43 -123 -168 -168q-61 -20 -125 -20q-147 0 -299 119 q-127 96 -217 221l-63 86l-21 41l80 78q4 -18 21 -45q6 -16 55 -82q29 -43 47 -68q33 -37 49 -55l100 -97q43 -39 131 -83q61 -31 117 -31q90 0 152 63q31 33 45 74t14 102q0 68 -53 68q-18 0 -47 -10q-39 -6 -80 -27l-43 -14l-29 -4q-98 0 -196.5 126t-98.5 205l6 39 q6 18 23 27l35 14l45 4l354 2v185h-819zM1044 571v121h127v-121h-127z" />
<glyph unicode="&#xb4;" horiz-adv-x="1179" d="M0 973v84h1192v-84h-148v-973h-108v449l-41 -13l-41 -2l-35 2l-33 6q-29 4 -36 11l-33 16q-4 -25 -10.5 -47.5t-24.5 -65.5l-16 -49q-90 -154 -267 -153q-109 0 -278 92q-27 12 -66 49l70 78q4 -12 27 -31l63 -43q23 -14 50.5 -28.5t51 -21.5t42 -11.5t40.5 -4.5 q92 0 154 76q35 49 53 133l4 50q0 164 -116 223q-41 18 -86 18q-18 0 -41 -8l-45 -18l-21 -13l-25 -16l-71 82l39 14l28 14l72 25l55 8q158 0 252 -137l31 -57l31 -80l18 -8l19 -7l32 -12l29 -2q39 0 66.5 7t58.5 26v422h-936z" />
<glyph unicode="&#xb6;" horiz-adv-x="860" d="M0 973v84h856v-84h-135v-314l41 35l57 39l62 31l51 10v-90l-80 -20q-33 -12 -55 -39q-31 -27 -45 -60l-15 -30l-16 -41v-494h-109v408q-18 -25 -45 -37l-47 -23l-51 -14l-51 -4q-37 0 -54.5 3t-52.5 15q-102 43 -143 141q-8 20 -14.5 50t-6.5 59v375h-147zM252 584 q0 -92 47 -140q10 -10 43 -26l66 -8q86 0 145 57q47 47 59 102v404h-360v-389z" />
<glyph unicode="&#xb7;" horiz-adv-x="739" d="M55 190l74 74q0 -12 29 -41l82 -67q117 -98 221 -99h39l37 9q90 25 122 88q20 41 21 79q0 35 -33 86q-41 59 -110 119l-136 111l-131 115q-78 68 -112 120q-33 59 -33 99q0 88 53 130t141 42l429 2v-80l-433 -4q-18 0 -34 -8l-31 -19l-23 -28l-8 -31q0 -41 148 -168 l276 -232q63 -51 113 -131q37 -61 37 -106q-1 -123 -95 -197q-61 -47 -159 -65l-70 -4q-104 0 -215 61l-109 64q-72 47 -90 81z" />
<glyph unicode="&#xb8;" horiz-adv-x="587" d="M0 973v84h596v-84h-176l41 -55q18 -25 33 -66l10 -61q0 -137 -119 -199l-51 -17l-70 -14l6 -18l9 -17l6 -14l6 -12q31 -59 98 -101q59 -33 127 -32q86 0 160 49q39 27 63.5 53.5t40.5 60.5v-145q-30 -31 -57 -43l-64 -29l-34 -10l-33 -8q-29 0 -37 -4l-33 -2 q-78 0 -138 21.5t-122.5 74.5t-93.5 117q-29 68 -29 151l17 -4q29 -4 37 -8h20l70 6q66 12 94 74q14 37 14 74q0 29 -11 56.5t-15.5 33.5t-24.5 37l-23 22l-28 27z" />
<glyph unicode="&#xba;" horiz-adv-x="911" d="M0 973v84h911v-84h-143v-264h-487q-18 0 -29 -11l-8 -20l8 -33q14 -29 29 -43l16 -27l25 -28l4 -8l10 -9l596 2v-83h-463q-49 0 -80 -17q-23 -6 -65 -43q-59 -49 -60 -139q0 -135 238 -197l67 -8l52 -8l118 -14l-34 -74l-46 -2q-16 0 -59 6t-106.5 18.5t-85.5 22.5 q-154 43 -222 143q-35 53 -34 125q0 49 32 103q16 27 39 49l49 49l-43 45l-26 35q-39 51 -56 88l-16 76l6 36l23 29l30 16l37 7l432 2v176h-659z" />
<glyph unicode="&#xbb;" horiz-adv-x="1132" d="M29 479v88h1050v-88h-1050zM492 88v139h141v-139h-141zM492 827v142h141v-142h-141z" />
<glyph unicode="&#xbc;" horiz-adv-x="491" d="M164 526q0 244 78 463q63 180 147 311l55 84q14 23 27 29l121 2q-49 -51 -113 -153l-51 -99l-55 -123l-45 -129l-31 -127l-18 -129l-7 -129q0 -51 4.5 -108.5t16.5 -118.5q31 -176 129 -383q47 -98 86 -156l84 -120h-121l-22 30l-56 90l-82 156l-35 80l-30 84 q-41 123 -61.5 238.5t-20.5 207.5z" />
<glyph unicode="&#xbd;" horiz-adv-x="516" d="M16 -360l41 61l41 59l43 74l41 80l70 158q33 74 63 231q8 49 14.5 111.5t6.5 111.5q0 248 -82 469q-23 57 -45.5 109.5t-61.5 124.5q-20 35 -22 39q-12 20 -25 35l-59 81l-21 25l-4 4l115 2l25 -31l55 -84l43 -73q123 -233 166 -467q8 -49 14 -114.5t6 -119.5 q0 -163 -43 -333q-59 -227 -186 -431l-57 -92l-19 -26l-4 -4h-115z" />
<glyph unicode="&#xbe;" horiz-adv-x="1155" d="M37 276v89h1050v-89h-1050zM37 680v88h1050v-88h-1050z" />
<glyph unicode="&#xbf;" horiz-adv-x="415" d="M68 551l20 16l18 13l37 30l25 31l16 31l15 41l10 41l4 32v431q0 41 18 94q37 98 119 137q47 20 88 20l27 -4l35 -6l168 2v-63h-164q-31 0 -44.5 -3t-35.5 -14q-76 -31 -111 -98q-14 -43 -14 -72l-4 -456q0 -20 -8 -47q0 -12 -2 -20.5t-15 -31.5l-22 -37l-109 -65l21 -16 l16 -9q25 -10 37 -28l27 -23l8 -14l12 -17l19 -51l14 -55l6 -43v-418q0 -86 55 -129q37 -29 105 -41l45 -2h164v-80h-168q-207 0 -264 140q-23 51 -23 108v428q0 68 -37 136.5t-108 111.5z" />
<glyph unicode="&#xc0;" horiz-adv-x="788" d="M104 -293h160q90 0 146 43q55 35 55 129l4 461l16 53l21 51l26 37l25 21l35 26l14 9l23 14l-105 70l-22 26l-17 41l-16 53l-4 45v426q0 74 -62.5 128.5t-138.5 54.5l-160 2v63h164l17 2l14 4l12 2h19q92 0 160.5 -80.5t68.5 -173.5l2 -464q0 -23 8 -37l13 -37l16 -33 l10 -16l31 -31l20 -16l17 -13l24 -16q-59 -30 -100 -98q-16 -29 -33 -76l-8 -76v-426q0 -117 -88 -186q-53 -41 -141 -58l-62 -4h-164v80z" />
<glyph unicode="&#xc1;" horiz-adv-x="911" d="M0 973v84h911v-84h-139v-973h-108v444l-512 -444l-80 72l344 272q-117 0 -183 78q-33 37 -55 92q-18 53 -18 113v346h-160zM264 612q0 -117 115 -180l61 -10q37 0 68 16q57 29 80 51l30 27l41 41v416h-395v-361z" />
<glyph unicode="&#xc3;" horiz-adv-x="911" d="M0 973v84h586l-41 59l-39 74l-39 98q-12 47 -12 86q0 82 65.5 133.5t157.5 51.5l59 -7l56 -18v-82l-17 4l-14 6l-41 8l-41 5q-86 0 -125 -84l-8 -62q0 -49 24 -115l21 -45l33 -57l39 -57l260 2v-84h-232v-268h-428l-6 -9l-6 -10l2 -29l8 -22l19 -31l30 -39l60 -65l32 -27 l29 -6q39 0 100 18l54 19l49 14l41 4q49 0 82 -45q8 -12 22 -51l8 -55q0 -70 -22 -129q-29 -80 -109 -144l-51 -37q-57 -27 -98 -26l22 -25l21 -14l45 -39l37 -33l82 -53l57 -35l-55 -88l-31 21l-22 14q-10 6 -28 18.5t-34 28.5l-104 90l-52 51l-38 35l-17 21h-72 q-29 0 -67 10q-14 0 -31 10q-96 31 -96 131l6 35q6 18 21 33l28 20l39 8q66 0 150 -79l26 -35l37 -45q41 0 72 10q33 4 51 16q125 55 125 197l-2 39q0 27 -5 36t-9 13l-21 8l-33 -8l-67 -25l-78 -22l-57 -8q-82 0 -179.5 132t-97.5 195l6 31l23 29l33 20l34 8l357 2v185 h-584z" />
<glyph unicode="&#xc4;" horiz-adv-x="1097" d="M0 973v84h1122v-84h-198v-973h-109v313l-72 -41l-65 -28l-96 -31l-86 -10q-20 0 -44 1t-61 15q-113 37 -162 123q-20 47 -20 92q0 84 57 141l23 23l35 29l-50 20l-32 21q-82 51 -82 149l4 41l14 47l21 41l20 25zM264 825q0 -57 53 -102l45 -29l50 -8l176 2l37 -76h-113 q-31 0 -66 -14q-131 -41 -131 -164q0 -68 58 -106l63 -33l76 -8q49 0 110.5 21.5t94.5 39.5l28 19l70 47v559h-467l-24 -23l-17 -16l-33 -53z" />
<glyph unicode="&#xc5;" horiz-adv-x="1376" d="M0 973v84h1397v-84h-649l24 -35l16 -25q18 -25 33 -71l10 -68q0 -123 -114 -192l59 -41l15 -17l24 -26l4 -6l8 -7l37 39l31 31l43 31l43 22l41 15l43 4q92 0 157.5 -71t65.5 -163q0 -27 -2 -43t-11 -48t-15.5 -48t-24.5 -53q-59 -121 -123 -187l-96 58l49 57l37 47 q86 111 86 221l-6 54l-19 45q-33 51 -102 51q-59 0 -135 -76l-25 -33l-29 -45v-31l2 -14q0 -119 -43 -192q-72 -121 -235 -121q-162 0 -285 160q-96 127 -149 297l-35 114l-6 51l88 68l37 -158q37 -170 121 -288q55 -80 107 -118t118 -38q100 0 143 61l21 54l8 75 q0 57 -10 80q0 35 -27 68q-39 70 -115 69l-159 2l-41 89h188l37 12q16 6 27 16q63 51 63 133q0 57 -53 129l-23 25l-30 35z" />
<glyph unicode="&#xc6;" horiz-adv-x="440" d="M0 973v84h188l-6 6l-6 27l-18 67l-6 57q0 127 88 215.5t231 88.5q84 0 174 -35q115 -43 193 -99l75 -55l95 -80l-9 17l-2 14l-8 43l-2 51q0 127 129 172q37 12 84 13l66 -7l57 -18v-82l-16 4l-13 6l-39 8l-38 5q-61 0 -101.5 -40t-40.5 -106q0 -49 19.5 -97t50.5 -91 l29 -39l43 -47l-121 2l-52 45l-49 49q-37 37 -73 63l-48 35l-122 82q-63 43 -145.5 71t-141.5 28q-49 0 -82 -17q-74 -25 -117 -119q-14 -51 -14 -96l2 -41l12 -45l15 -41l8 -16l147 2v-84h-147v-973h-109v973h-180z" />
<glyph unicode="&#xc7;" horiz-adv-x="442" d="M0 973v84h186l-8 18l-12 51l-12 56l-2 32q0 55 9 92t38 76q55 76 143 113q63 23 129 23q156 0 350 -119q80 -49 144 -101l147 -122l59 -62l62 -59l-137 2l-52 45l-49 49q-37 37 -73 63l-48 35l-122 82q-63 43 -145.5 71t-141.5 28q-49 0 -82 -17q-74 -25 -117 -119 q-14 -51 -14 -96l2 -41l10 -47l12 -39l9 -16l178 2v-84h-174v-973h-109v973h-180zM1137 1255v134h141v-134h-141z" />
<glyph unicode="&#xc8;" horiz-adv-x="440" d="M-428 1223q0 31 2 45t16 55q59 174 228 174q72 0 151 -55q96 -66 162 -166l59 -92l74 -129l195 2v-84h-172v-973h-107v973h-180v84h156l2 8q0 49 -164 238q-98 115 -172 114q-66 0 -103 -51q-18 -29 -34 -86l-2 -39q0 -27 7 -49.5t12 -37.5t11 -28l27 -51l14 -20l-119 2 l-24 33l-21 40l-14 46zM276 1184v133h142v-133h-142z" />
<glyph unicode="&#xc9;" horiz-adv-x="440" d="M0 973v84h188l-6 6l-6 27l-18 67l-6 57q0 127 88 215.5t231 88.5q84 0 174 -35q115 -43 193 -99l75 -55l95 -80l-9 17l-2 14l-8 43l-2 51q0 127 129 172q37 12 84 13l66 -7l57 -18v-82l-16 4l-13 6l-39 8l-38 5q-61 0 -101.5 -40t-40.5 -106q0 -49 19.5 -97t50.5 -91 l29 -39l43 -47l-121 2l-52 45l-49 49q-37 37 -73 63l-48 35l-122 82q-63 43 -145.5 71t-141.5 28q-49 0 -82 -17q-74 -25 -117 -119q-14 -51 -14 -96l2 -41l12 -45l15 -41l8 -16l147 2v-84h-147v-973h-109v973h-180zM1196 1233v115h121v-115h-121z" />
<glyph unicode="&#xca;" horiz-adv-x="440" d="M-428 1223q0 31 2 45t16 55q59 174 228 174q72 0 151 -55q96 -66 162 -166l59 -92l74 -129l195 2v-84h-172v-973h-107v973h-180v84h156l2 8q0 49 -164 238q-98 115 -172 114q-66 0 -103 -51q-18 -29 -34 -86l-2 -39q0 -27 7 -49.5t12 -37.5t11 -28l27 -51l14 -20l-119 2 l-24 33l-21 40l-14 46zM158 1415q0 82 65.5 133t157.5 51l59 -6l56 -18v-82l-17 4l-14 6l-41 8l-41 5q-86 0 -125 -84l-8 -62q0 -49 18.5 -99t46.5 -89l27 -39l41 -47l-76 2q-14 0 -31 28l-47 74q-72 113 -71 215z" />
<glyph unicode="&#xcb;" horiz-adv-x="540" d="M16 866q0 92 57.5 149.5t149.5 57.5q127 0 174 -98q10 -27 15 -62v-61h-93v63q0 82 -92 82q-43 0 -75 -39l-21 -40l-6 -48q0 -47 10 -77q4 -14 11.5 -28.5t23.5 -37.5q31 -43 57 -70q12 -10 27.5 -15t21.5 -7l70 20l80 9l37 -2l41 -5l45 -77l-137 -7q-59 0 -80 -10 q-127 -29 -127 -149q0 -88 108 -131l64 -9q123 0 252 97l45 41l53 57v-109q0 -16 -29 -36l-73 -52q-119 -82 -269 -82q-96 0 -180 62.5t-84 157.5q0 68 51 133l21 20l33 27q-33 14 -62 47q-63 66 -86 113l-16 41q-8 20 -12.5 37.5t-4.5 37.5zM508 973v84h41v-84h-41z" />
<glyph unicode="&#xcc;" horiz-adv-x="788" d="M0 973v84h801v-84h-164v-213h-334l-33 -6l-22 -2q-55 -12 -55 -74q0 -55 40 -94l27 -25l21 -8l92 29l8 -2l10 2h17l14 2h31l8 -2h10l18 -2h15l49 -86h-18l-21 4h-12l-13 2h-57q-20 0 -43 -9l-57 -18q-27 -14 -47.5 -47t-20.5 -74q0 -57 21 -92q10 -29 49 -53l57 -23 l72 -8l35 2l22 6l-4 8v39q0 33 4 43l15 35q14 20 35.5 31.5t50.5 11.5q68 0 86 -63l6 -41l-6 -41l-19 -35q-14 -16 -29 -25l-34 -8l106 -184l-90 -49l-92 209l-8 -7l-19 -2l-28 -4h-31q-123 0 -197 43q-53 31 -81.5 82t-28.5 129q0 29 4 37l14 41l33 49l12 21l-39 26l-26 21 q-66 66 -66 129q0 84 43 119q25 16 70 32l59 9l272 2v133h-532z" />
<glyph unicode="&#xcd;" horiz-adv-x="983" d="M0 973v84h999v-84h-219v-213h-432q-96 0 -96 -111q0 -86 100 -147q92 -55 197 -56q90 0 168 31q25 6 49 25l35 22l39 33l80 -61l-76 -52l-64 -32v-232h-411q-23 0 -39.5 -7t-36.5 -28l-23 -34l-6 -41q0 -135 201 -185q39 -8 59.5 -9t42.5 -1q66 0 138 31l94 43 q35 14 53 35l72 -64l-62 -43l-86 -43q-25 -12 -92 -24q-35 -6 -60.5 -10.5t-52.5 -4.5q-88 0 -174 19q-139 31 -207 141q-31 49 -30 119q0 117 100 162q29 10 64 14l356 2v133l-47 -10l-33 -2h-41q-166 0 -276 61q-63 37 -99.5 93.5t-36.5 121.5q0 94 55.5 139.5t133.5 45.5 l344 2v137h-680z" />
<glyph unicode="&#xce;" horiz-adv-x="983" d="M0 973v84h999v-84h-219v-213h-432q-104 0 -104 -111q0 -43 20 -84q41 -72 166 -108l119 -15q45 0 85 6.5t81 22.5l47 25l33 20l36 35l76 -64l-63 -43l-64 -32v-232h-465q-37 0 -71 -35l-23 -34l-8 -41q0 -96 113 -158q37 -18 112 -37q25 -6 49.5 -8t57.5 -2l84 6l69 18 q82 23 82 103q0 20 -6 37.5t-22 38.5l-13 8l-18 10l67 66l29 -35l23 -23q45 -45 45 -94q0 -164 -207 -203q-66 -12 -129 -12q-172 0 -308.5 73.5t-136.5 215.5q0 111 103 162q33 10 65 14l408 2v133q-39 -12 -78 -18l-78 -5q-45 0 -74.5 2.5t-70.5 14.5q-154 41 -209 143 q-31 55 -31 127q0 51 15 80q18 57 102 90q43 14 80 15l344 2v137h-680z" />
<glyph unicode="&#xcf;" horiz-adv-x="1079" d="M0 973v84h1075v-84h-164v-234h-458l-17 -6l-4 -10l2 -12l4 -9l25 -30l41 -41l28 -25l31 -16l35 -8l39 -2l35 2l45 6l92 14l51 4q68 6 107 -35q12 -14 18 -43l6 -55q0 -113 -119 -186l-104 -41q-55 -12 -117 -13h-57l-27 5l-75 16l-29 8l-31 12l31 -51l26 -35 q23 -31 64 -65q23 -14 55 -21l43 2l162 33l59 8q27 0 46 -10q39 -6 71 -63l10 -45q0 -57 -28 -109q-61 -115 -246 -141l-70 -4q-102 0 -212.5 32.5t-194.5 96.5l-74 55l-86 74l64 73l81 -73l70 -47q188 -123 352 -123q57 0 124 25.5t98 68.5q14 23 20 59q-2 23 -12 35l-19 8 l-26 4l-37 -8l-164 -33l-51 -2q-74 0 -162 79t-88 173v9l2 12v8l4 10l-65 41l-103 72l-33 24l-32 23l-31 25l59 86l86 -78l70 -53q76 -55 186 -99q92 -33 162 -33h33q33 4 80 21l35 16q98 43 98 119q0 25 -19 37l-22 6l-29 2l-43 -4l-63 -14l-70 -15l-55 -4q-51 0 -156 86 q-47 39 -84 84q-25 41 -24 74l6 41q6 18 22 29l33 16l39 6l381 2v154h-805z" />
<glyph unicode="&#xd1;" horiz-adv-x="1304" d="M0 973v84h1300v-84h-569v-309l37 34l25 21q63 51 143 51q115 0 201 -78q80 -72 80 -186q0 -117 -107 -250l-45 -55l-61 -68l-89 68q14 4 33 22q86 86 133 193q23 57 23 98q0 57 -21 100q-37 72 -135 72q-84 0 -155 -90q-23 -31 -45 -80q-16 -45 -17 -78v-438h-106v303 q-76 -76 -191 -76t-205 81t-90 202q0 123 84 199q61 55 144 73l55 6l55 -6q41 -6 55 -16v-86l-49 16l-45 6q-76 0 -131 -53q-14 -14 -41 -61q-14 -43 -14 -74q0 -86 51 -145q23 -29 59 -47q18 -8 33 -12.5t37 -4.5q74 0 150 76q43 43 43 82v510h-625zM352 -219 q0 141 127 205q25 6 43.5 10t40.5 4h168v-80h-139q-49 0 -90 -37q-16 -18 -33 -45l-8 -51q0 -37 14 -63q12 -35 70 -68q41 -23 102 -23q94 0 162 60l51 -80l-35 -21l-28 -14q-94 -35 -168 -35q-59 0 -99 17q-100 27 -155 125q-23 41 -23 96z" />
<glyph unicode="&#xd2;" horiz-adv-x="1011" d="M8 866q0 90 60.5 140.5t146.5 50.5q135 0 182 -105q14 -43 15 -75v-277h321v373h-201v84h508v-84h-198v-973h-109v512h-321v-186l-2 -13l-17 -14l-20 -4q-18 0 -54 27q-49 35 -90 81l-77 93q-20 31 -27 55l6 16l16 17l19 10l14 4l123 2v287q0 37 -26.5 63.5t-65.5 26.5 q-18 0 -41 -8l-35 -19l-22 -32l-9 -44l2 -28l11 -31l4 -14l10 -19l-102 2l-9 15l-2 12l-8 29z" />
<glyph unicode="&#xd3;" d="M-188 748q49 6 71 16l56 14l145 25q43 6 63.5 8t67.5 2q94 0 127 -10q125 -16 172 -90q27 -43 27 -90q0 -115 -88 -166l-86 -33q-53 -8 -77 -9t-38 -1q53 -188 235 -189q43 0 97.5 20.5t93.5 55.5l35 31l43 47v594h-756v84h1008v-84h-144v-973h-108v260q-6 -10 -17 -16 l-34 -23q-113 -72 -230 -71q-152 0 -242 108q-104 121 -104 244l47 -13l60 -4l73 7q45 0 86 36.5t41 85.5q0 61 -65 95l-72 20l-86 8l-94 -6l-105 -18q-25 -4 -55.5 -12.5t-67.5 -20.5q-51 -12 -77 -27z" />
<glyph unicode="&#xd4;" horiz-adv-x="1079" d="M0 973v84h1075v-84h-164v-185h-458l-15 -6l-4 -6l2 -10l13 -14l18 -21l29 -24l39 -27l28 -18l25 -11l24 -2l37 2l43 6l107 19l55 6l57 -6q80 -23 80 -123q0 -90 -67 -145l-29 -23l-39 -23v-206h-453q-23 0 -38 -9l-35 -18l-23 -29l-8 -34q0 -127 127 -172l51 -19l76 -18 q0 25 -4 34l-2 31q0 39 12 68.5t43 52.5q51 35 133 35q53 0 80 -8q31 -6 66 -27q53 -25 63 -98q0 -98 -90 -142q-80 -35 -190 -34q-219 0 -340 79q-127 86 -127 230q0 96 106 135q31 12 66 12l383 2v97l-13 -5l-28 -2l-33 -2h-23l-73 2q-37 0 -68 11l-70 18l-71 33l-94 47 q-41 18 -58 35l-76 53l-65 64l59 77l82 -77l70 -52q176 -129 352 -129q43 0 74 9q45 6 74 26q98 35 98 121q0 25 -19 37l-22 6l-29 2l-43 -4l-63 -14l-70 -15l-55 -4q-39 0 -111 37l-47 31q-12 8 -33 24q-27 23 -47 47q-27 41 -26 74l6 39q6 14 20 29l33 14l41 6l381 2v109 h-805zM643 -143h10l17 -2h10l10 -2h21q37 0 51 4q29 0 39 8q47 16 47 63q0 17 -8 25l-21 8q-14 0 -45 -12l-63 -39l-29 -21z" />
<glyph unicode="&#xd6;" horiz-adv-x="759" d="M0 973v84h768v-84h-113v-260h-391l-14 -11l-4 -10l2 -20l10 -23l21 -35l36 -45l25 -26l27 -17l26 -8l35 -2l33 2q33 0 55 8l53 9l35 4q35 0 64 -19l32 -22l21 -9l53 -16l51 -4l58 6q20 4 51 21l8 4l10 10v-102l-16 -2h-14l-17 -3h-12l-29 -4h-57q-18 0 -25 4l-12 3l-12 4 l-15 4l-12 8v-57q0 -102 -80 -175q-51 -45 -97 -66.5t-89 -21.5l94 -59l109 -47l-64 -80l-160 98l-36 27l-33 27l-19 18l-49 2h-69q-59 0 -95 47q-8 16 -14 55l6 31l19 31l26 18l33 9l31 -3q12 0 30 -12l29 -16l31 -23l20 -22l27 -33l70 14q39 6 51 17q123 55 123 178 q0 27 -4 31l-13 20l-18 12l-25 4l-35 -4l-94 -24l-28 -4l-46 6q-20 6 -44.5 19.5t-47.5 33.5l-45 47q-90 94 -90 182q0 47 43 78l29 11l37 4l305 2v176h-549z" />
<glyph unicode="&#xd8;" horiz-adv-x="1304" d="M0 973v84h1341v-84h-610v-309l37 34l25 21q63 51 143 51q115 0 201 -78q80 -72 80 -186q0 -117 -107 -250l-45 -55l-61 -68l-89 68q14 4 33 22q86 86 133 193q23 57 23 98q0 57 -21 100q-37 72 -135 72q-84 0 -155 -90q-23 -31 -45 -80q-16 -45 -17 -78v-438h-106v332 l-486 -324l-59 80l297 176l-70 19q-33 6 -49 22q-119 70 -119 205q0 115 86 195q63 57 146 75l57 6l53 -6q23 0 51 -14v-86l-49 16l-45 6q-76 0 -131 -53q-14 -14 -41 -61q-14 -43 -14 -74q0 -113 115 -172q33 -10 65 -14q29 0 39 4l41 18l113 78v545h-625z" />
<glyph unicode="&#xd9;" horiz-adv-x="712" d="M0 973v84h805v-84h-805zM43 672v80h856v-80h-371q-68 0 -130 -50.5t-62 -132.5q0 -115 129 -266l53 -61l78 -76l-64 -78l-86 90l-61 74q-150 180 -149 317q0 59 26 101l19 28l51 52z" />
<glyph unicode="&#xda;" horiz-adv-x="516" d="M0 973v84h520v-84h-520zM68 565v86q12 -12 49 -30l94 -31l88 -19l82 -6l59 6l64 19l22 10l29 14v-102l-27 -14l-20 -9l-55 -16l-50 -4l-81 6q-33 0 -86 21l-101 32z" />
<glyph unicode="&#xdb;" horiz-adv-x="587" d="M129 518q0 94 56.5 154.5t150.5 60.5q37 0 52 -2t36 -14q53 -18 86 -77.5t33 -119.5q0 -59 -32 -120t-89 -81q-43 -14 -86 -14q-100 0 -154 62q-14 14 -41 67q-12 37 -12 84z" />
<glyph unicode="&#xdc;" horiz-adv-x="759" d="M76 479l196 117l97 66l-43 28l-27 27q-72 72 -72 157q0 84 62.5 136.5t146.5 52.5q80 0 150 -51q47 -37 63 -99l2 -39q0 -27 -4 -36l-10 -35q-6 -20 -21 -37l-24 -37l-25 -29l-35 -30l19 -13l18 -10l17 -10l18 -8l64 -35q18 -4 45 -23l231 -112v-99l-348 181l-43 16 l-68 35l-28 18l-150 -102l-41 -31l-59 -39l-68 -41zM324 874q0 -57 34 -92q41 -53 86 -59l29 20l21 19q51 45 51 104q0 29 -8 47q-6 18 -27 39l-39 25l-43 8q-39 0 -74 -29l-22 -34z" />
<glyph unicode="&#xdd;" horiz-adv-x="1280" d="M0 973v84h1292v-84h-571v-305l20 18l43 31q63 45 123 45q78 0 148.5 -41t103.5 -115q20 -55 21 -100q0 -125 -101 -264l-37 -41l-69 -72l-88 72l53 39l39 36q94 106 94 238q0 63 -37 113q-45 51 -123 51q-37 0 -67 -23q-43 -27 -70 -69l-24 -39l-29 -53v-494h-109v408 l-436 -340l-76 71l316 213l-17 -4h-14l-45 2l-39 10l-51 25l-45 37l-27 35l-18 41l-10 47l-3 53v375h-147zM252 584q0 -92 47 -140q10 -10 43 -26l66 -8q86 0 145 57q47 47 59 102v404h-360v-389z" />
<glyph unicode="&#xde;" horiz-adv-x="540" d="M104 920l89 292h118l-118 -292h-89zM307 915l84 293h125l-121 -293h-88z" />
<glyph unicode="&#xdf;" horiz-adv-x="563" d="M104 932l119 293h88l-84 -293h-123zM307 928l121 293h88l-88 -293h-121z" />
<glyph unicode="&#xe0;" horiz-adv-x="911" d="M0 973v84h911v-84h-143v-264h-487q-18 0 -29 -11l-8 -20l8 -33q14 -29 29 -43l16 -27l25 -28l4 -8l10 -9l592 -2l4 -528h-47l-2 279h-230v-119l-10 -21l-16 -4q-2 0 -7.5 2t-19.5 15l-45 49l-41 53l-14 31l2 16l8 12l12 6l23 7l338 2l2 121h-416q-49 0 -80 -17 q-23 -6 -65 -43q-59 -49 -60 -139q0 -135 238 -197l67 -8l52 -8l118 -14l-34 -74l-46 -2q-16 0 -59 6t-106.5 18.5t-85.5 22.5q-154 43 -222 143q-35 53 -34 125q0 49 32 103q16 27 39 49l49 49l-43 45l-26 35q-39 51 -56 88l-16 76l6 36l23 29l30 16l37 7l432 2v176h-659z " />
<glyph unicode="&#xe1;" horiz-adv-x="1376" d="M0 973v84h1372v-84h-147v-973h-109v231q-137 -143 -321 -143q-188 0 -299 162h10l8 -2h21q102 0 139 63q14 29 14 60q0 33 -7 52t-30 30l-8 2l-8 4h-10l-13 4l-243 2q-12 0 -41 -19l-41 -43q-18 -29 -31 -63l-8 -74q0 -88 102 -166l84 -57l121 -59l74 -21l-76 -72 q-31 -12 -211 99q-94 57 -149 131q-27 35 -40.5 70.5t-13.5 70.5l6 78q0 35 23 57l27 31l53 53l-35 39l-23 33q-59 88 -59 154l6 36l23 29l30 16l37 7l432 2v176h-659zM242 672l6 -35q6 -20 22 -41l29 -35l25 -18l340 2l38 -19q18 -6 27 -16q68 -49 68 -127q0 -84 -47 -131 l-21 -21l-29 -20l33 -16l33 -13l31 -10l22 -2q27 0 54.5 6t58.5 21q68 31 106 77l35 43l43 62v594h-348v-264h-487q-18 0 -31 -13z" />
<glyph unicode="&#xe2;" horiz-adv-x="983" d="M0 973v84h999v-84h-143v-264h-575q-31 0 -39 -35q0 -27 10 -43l31 -51l41 -45l32 -21l27 8l55 15l66 12l55 4q33 0 66.5 -2t74.5 -10q133 -25 183 -99q25 -37 24 -96q0 -70 -71 -96l-48 -10l-92 -15q-43 0 -57 -4q-90 0 -90 -84q0 -55 55 -78l58 -18l63 -6l61 6 q20 0 66 22l12 5l17 10l43 -86l-93 -29q-31 -6 -47 -8t-55 -2q-127 0 -194 43q-90 43 -91 149q0 94 60 134q27 20 64.5 31.5t90.5 11.5h50l34 2h29l23 6l12 12l4 25q0 31 -20.5 50t-65.5 36l-72 12l-94 4q-43 0 -63.5 -2t-63.5 -14q-111 -33 -166 -123q-23 -39 -22 -92 q0 -53 24 -121q12 -47 58 -99q68 -78 108 -114q41 -33 82 -39l-72 -80q-78 12 -211 188q-37 53 -71 129q-23 61 -23 136q0 80 35 127l35 47l55 55l-39 43l-26 35l-52 88q-8 23 -16 74l6 36l23 29l30 16l37 7l521 2v176h-748z" />
<glyph unicode="&#xe3;" horiz-adv-x="1404" d="M0 973v84h1409v-84h-149v-973h-107v205h-334v-113l-2 -22l-4 -13l-16 -12l-21 -4q-37 0 -117 82q-72 68 -84 119l3 16l10 12l16 6l25 7l80 2v172h-293q-96 0 -140 -119l-8 -72q0 -66 60 -133q43 -49 116 -90l113 -59l72 -21l-76 -72q-51 0 -195.5 99.5t-181.5 202.5 q-12 35 -12 69l6 66q8 51 49 94l45 47l-39 43l-26 35l-52 86q-8 23 -16 74l6 36l23 29l30 16l37 7l432 2v176h-659zM246 674q0 -43 35 -84l32 -37l27 -10l479 2v-260h334v688h-385v-264h-487q-27 0 -35 -35z" />
<glyph unicode="&#xe4;" horiz-adv-x="1452" d="M0 973v84h1460v-84h-571v-242l76 33q43 12 90 12q123 0 220 -74.5t97 -195.5q0 -78 -57 -195l-47 -84l-45 -65l-60 -84l-88 61l10 8l23 27l61 96q90 143 91 244q0 74 -49.5 123t-123.5 49q-68 0 -94 -10q-37 -6 -67 -25l-29 -22l-8 -19v-610h-105v664h-256 q-121 0 -178 -107q-10 -33 -14 -68q0 -123 104 -276l43 -63l62 -84l-88 -54l-66 90l-45 72q-27 43 -45 81t-39 91q-27 80 -26 143q0 70 45 123l36 35l15 15l-289 2v88h741v221h-784z" />
<glyph unicode="&#xe5;" horiz-adv-x="897" d="M152 467q0 104 57 190t158 129q27 10 63.5 18.5t65.5 8.5q141 0 248.5 -99.5t107.5 -246.5q0 -136 -92 -234q-90 -96 -236 -96q-135 0 -253.5 93.5t-118.5 236.5zM256 401q0 -37 18 -73q12 -27 48 -58l69 -41q37 -12 80 -12q82 0 154 57q68 49 104 132q16 37 21.5 63.5 t5.5 52.5q-1 83 -58 140t-149 57q-117 0 -205 -94.5t-88 -223.5z" />
<glyph unicode="&#xe6;" d="M0 973v84h1004v-84h-220v-260h-399q-137 0 -137 -166q0 -160 180 -234q55 -16 113 -16l20 2l31 4l37 6l-2 19q0 18 10 37q31 113 111 112q66 0 86 -59l6 -37q0 -51 -29 -94q-14 -25 -39 -39l-45 -10l4 -27l14 -72l15 -45l24 -59l35 -55l21 -29l20 -23h-121l-37 84l-24 60 q-2 8 -13.5 39.5t-13.5 40.5l-8 73l-424 -309l-63 88l376 223q-55 0 -153 19q-20 0 -43 14q-197 74 -197 287q0 102 56.5 173t148.5 71l332 2v180h-676z" />
<glyph unicode="&#xe7;" horiz-adv-x="911" d="M0 973v84h911v-84h-139v-973h-108v444l-512 -444l-80 72l344 272q-117 0 -183 78q-33 37 -55 92q-18 53 -18 113v346h-160zM264 612q0 -117 115 -180l61 -10q37 0 68 16q57 29 80 51l30 27l41 41v416h-395v-361z" />
<glyph unicode="&#xe8;" horiz-adv-x="540" d="M16 866q0 92 57.5 149.5t149.5 57.5q127 0 174 -98q10 -27 15 -62v-61h-93v63q0 82 -92 82q-43 0 -75 -39l-21 -40l-6 -48q0 -47 10 -77q4 -14 11.5 -28.5t23.5 -37.5q31 -43 57 -70q12 -10 27.5 -15t21.5 -7l70 20l80 9l37 -2l41 -5l45 -77l-137 -7q-59 0 -80 -10 q-127 -29 -127 -149q0 -88 108 -131l64 -9q123 0 252 97l45 41l53 57v-109q0 -16 -29 -36l-73 -52q-119 -82 -269 -82q-96 0 -180 62.5t-84 157.5q0 68 51 133l21 20l33 27q-33 14 -62 47q-63 66 -86 113l-16 41q-8 20 -12.5 37.5t-4.5 37.5zM508 973v84h41v-84h-41z" />
<glyph unicode="&#xe9;" horiz-adv-x="1032" d="M0 973v84h1036v-80h-147v-977h-109v457l-381 -205l62 -105l2 -18l2 -10q0 -25 -12 -31l-17 -4l-20 -2l-29 2q-23 0 -37 8l-47 12l-55 25l-37 18l-27 23l-14 20l-4 23q0 35 43 70l8 6l14 8l496 211l-37 41l-28 33q-35 41 -74 69q-35 33 -60 43l-30 13l-33 8l-37 4l-33 2 l-49 -2l-45 -6l-18 -4l-23 -7l8 -147l-6 -23l-6 -12l-14 -12l-17 -4l-20 4l-27 16l-31 27l-34 37l-58 74l-12 20l-4 20q0 25 29 48l88 34l120 21l132 8q47 0 74.5 -2t55 -14.5t56.5 -40.5q49 -39 88 -88l41 -50l57 -65v420h-780z" />
<glyph unicode="&#xea;" horiz-adv-x="983" d="M0 973v84h999v-84h-219v-213h-432q-96 0 -96 -111q0 -86 100 -147q92 -55 197 -56q90 0 168 31q25 6 49 25l35 22l39 33l80 -61l-76 -52l-64 -32v-232h-411q-23 0 -39.5 -7t-36.5 -28l-23 -34l-6 -41q0 -135 201 -185q39 -8 59.5 -9t42.5 -1q66 0 138 31l94 43 q35 14 53 35l72 -64l-62 -43l-86 -43q-25 -12 -92 -24q-35 -6 -60.5 -10.5t-52.5 -4.5q-88 0 -174 19q-139 31 -207 141q-31 49 -30 119q0 117 100 162q29 10 64 14l356 2v133l-47 -10l-33 -2h-41q-166 0 -276 61q-63 37 -99.5 93.5t-36.5 121.5q0 94 55.5 139.5t133.5 45.5 l344 2v137h-680z" />
<glyph unicode="&#xeb;" horiz-adv-x="983" d="M0 973v84h999v-84h-219v-213h-432q-104 0 -104 -111q0 -43 20 -84q41 -72 166 -108l119 -15q45 0 85 6.5t81 22.5l47 25l33 20l36 35l76 -64l-63 -43l-64 -32v-232h-465q-37 0 -71 -35l-23 -34l-8 -41q0 -96 113 -158q37 -18 112 -37q25 -6 49.5 -8t57.5 -2l84 6l69 18 q82 23 82 103q0 20 -6 37.5t-22 38.5l-13 8l-18 10l67 66l29 -35l23 -23q45 -45 45 -94q0 -164 -207 -203q-66 -12 -129 -12q-172 0 -308.5 73.5t-136.5 215.5q0 111 103 162q33 10 65 14l408 2v133q-39 -12 -78 -18l-78 -5q-45 0 -74.5 2.5t-70.5 14.5q-154 41 -209 143 q-31 55 -31 127q0 51 15 80q18 57 102 90q43 14 80 15l344 2v137h-680z" />
<glyph unicode="&#xec;" horiz-adv-x="1079" d="M0 973v84h1075v-84h-164v-234h-458l-17 -6l-4 -10l2 -12l4 -9l25 -30l41 -41l28 -25l31 -16l35 -8l39 -2l35 2l45 6l92 14l51 4q68 6 107 -35q12 -14 18 -43l6 -55q0 -113 -119 -186l-104 -41q-55 -12 -117 -13h-57l-27 5l-75 16l-29 8l-31 12l31 -51l26 -35 q23 -31 64 -65q23 -14 55 -21l43 2l162 33l59 8q27 0 46 -10q39 -6 71 -63l10 -45q0 -57 -28 -109q-61 -115 -246 -141l-70 -4q-102 0 -212.5 32.5t-194.5 96.5l-74 55l-86 74l64 73l81 -73l70 -47q188 -123 352 -123q57 0 124 25.5t98 68.5q14 23 20 59q-2 23 -12 35l-19 8 l-26 4l-37 -8l-164 -33l-51 -2q-74 0 -162 79t-88 173v9l2 12v8l4 10l-65 41l-103 72l-33 24l-32 23l-31 25l59 86l86 -78l70 -53q76 -55 186 -99q92 -33 162 -33h33q33 4 80 21l35 16q98 43 98 119q0 25 -19 37l-22 6l-29 2l-43 -4l-63 -14l-70 -15l-55 -4q-51 0 -156 86 q-47 39 -84 84q-25 41 -24 74l6 41q6 18 22 29l33 16l39 6l381 2v154h-805z" />
<glyph unicode="&#xed;" horiz-adv-x="788" d="M0 973v84h801v-84h-164v-213h-334l-33 -6l-22 -2q-55 -12 -55 -74q0 -55 40 -94l27 -25l21 -8l92 29l8 -2l10 2h17l14 2h31l8 -2h10l18 -2h15l49 -86h-18l-21 4h-12l-13 2h-57q-20 0 -43 -9l-57 -18q-27 -14 -47.5 -47t-20.5 -74q0 -57 21 -92q10 -29 49 -53l57 -23 l72 -8l35 2l22 6l-4 8v39q0 33 4 43l15 35q14 20 35.5 31.5t50.5 11.5q68 0 86 -63l6 -41l-6 -41l-19 -35q-14 -16 -29 -25l-34 -8l106 -184l-90 -49l-92 209l-8 -7l-19 -2l-28 -4h-31q-123 0 -197 43q-53 31 -81.5 82t-28.5 129q0 29 4 37l14 41l33 49l12 21l-39 26l-26 21 q-66 66 -66 129q0 84 43 119q25 16 70 32l59 9l272 2v133h-532z" />
<glyph unicode="&#xee;" d="M-188 748q49 6 71 16l56 14l145 25q43 6 63.5 8t67.5 2q94 0 127 -10q125 -16 172 -90q27 -43 27 -90q0 -115 -88 -166l-86 -33q-53 -8 -77 -9t-38 -1q53 -188 235 -189q43 0 97.5 20.5t93.5 55.5l35 31l43 47v594h-756v84h1008v-84h-144v-973h-108v260q-6 -10 -17 -16 l-34 -23q-113 -72 -230 -71q-152 0 -242 108q-104 121 -104 244l47 -13l60 -4l73 7q45 0 86 36.5t41 85.5q0 61 -65 95l-72 20l-86 8l-94 -6l-105 -18q-25 -4 -55.5 -12.5t-67.5 -20.5q-51 -12 -77 -27z" />
<glyph unicode="&#xef;" horiz-adv-x="1079" d="M0 973v84h1075v-84h-164v-185h-458l-15 -6l-4 -6l2 -10l13 -14l18 -21l29 -24l39 -27l28 -18l25 -11l24 -2l37 2l43 6l107 19l55 6l57 -6q80 -23 80 -123q0 -90 -67 -145l-29 -23l-39 -23v-206h-453q-23 0 -38 -9l-35 -18l-23 -29l-8 -34q0 -127 127 -172l51 -19l76 -18 q0 25 -4 34l-2 31q0 39 12 68.5t43 52.5q51 35 133 35q53 0 80 -8q31 -6 66 -27q53 -25 63 -98q0 -98 -90 -142q-80 -35 -190 -34q-219 0 -340 79q-127 86 -127 230q0 96 106 135q31 12 66 12l383 2v97l-13 -5l-28 -2l-33 -2h-23l-73 2q-37 0 -68 11l-70 18l-71 33l-94 47 q-41 18 -58 35l-76 53l-65 64l59 77l82 -77l70 -52q176 -129 352 -129q43 0 74 9q45 6 74 26q98 35 98 121q0 25 -19 37l-22 6l-29 2l-43 -4l-63 -14l-70 -15l-55 -4q-39 0 -111 37l-47 31q-12 8 -33 24q-27 23 -47 47q-27 41 -26 74l6 39q6 14 20 29l33 14l41 6l381 2v109 h-805zM643 -143h10l17 -2h10l10 -2h21q37 0 51 4q29 0 39 8q47 16 47 63q0 17 -8 25l-21 8q-14 0 -45 -12l-63 -39l-29 -21z" />
<glyph unicode="&#xf0;" horiz-adv-x="983" d="M0 973v84h999v-84h-219v-213h-432q-104 0 -104 -111q0 -43 20 -84q41 -72 166 -108l119 -15q117 0 178 142l16 57l17 84l78 -25v-24q0 -14 -4 -35l-3 -53q0 -33 -8 -49l-10 -41l-6 -6l-6 -13l-8 -18l-7 -25l-4 -10l-2 -16v-230h-465q-37 0 -71 -35l-23 -34l-8 -41 q0 -96 113 -158q37 -18 112 -37q25 -6 49.5 -8t57.5 -2l84 6l69 18q82 23 82 103q0 20 -6 37.5t-22 38.5l-13 8l-18 10l67 66l29 -35l23 -23q45 -45 45 -94q0 -164 -207 -203q-66 -12 -129 -12q-172 0 -308.5 73.5t-136.5 215.5q0 111 103 162q33 10 65 14l408 2v133 q-39 -12 -78 -18l-78 -5q-45 0 -74.5 2.5t-70.5 14.5q-154 41 -209 143q-31 55 -31 127q0 51 15 80q18 57 102 90q43 14 80 15l344 2v137h-680z" />
<glyph unicode="&#xf1;" horiz-adv-x="491" d="M41 207q0 45 14 76q20 61 105 96q31 12 71 12q84 0 138.5 -50t54.5 -134q0 -78 -57 -133q-57 -51 -136 -51q-74 0 -132 46t-58 138zM127 203l6 -43l21 -35l30 -23l47 -8l43 8q18 6 33 23l21 35l8 43q0 27 -8 43l-19 35q-12 16 -35 24l-43 8q-45 0 -77 -34l-21 -35z" />
<glyph unicode="&#xf3;" horiz-adv-x="1376" d="M0 973v84h1376v-80h-147v-977h-109v403l-293 -268l-79 66l305 248l-6 2l-7 4l-8 2l-6 4q-31 16 -68 24l-73 9l-58 -5l-65 -12l-51 -14l-23 -8l-51 94l84 14l90 15l66 4h24l10 -2h13q14 0 18 -5l14 -2l-28 52l-21 30q-78 78 -211 78l-45 -4q-29 0 -53 -8q-10 -2 -12 -4 l-15 -2q0 -92 -49 -164q-18 -27 -54 -47.5t-75 -20.5l-22 2l-27 4l127 -192l55 -72l99 -112l43 -43l-84 -70q-37 12 -99 104l-249 363l-58 94l-37 64l-37 65l89 58l59 -115q37 -72 121 -72l45 6q18 6 26 21l15 30l4 44l-2 30v281h-461zM567 801l31 2l20 6l56 8l39 4 q174 0 282 -141l33 -59l37 -82l55 -35v469h-553v-172z" />
<glyph unicode="&#xf4;" horiz-adv-x="1304" d="M0 973v84h1296v-84h-565v-260l49 35l66 30l74 19l73 8q141 0 191 -96q8 -16 12 -36t4 -46q0 -82 -53 -154l-31 -31l-76 54l11 6l8 10q20 27 32.5 55.5t12.5 59.5q0 23 -10 41q-6 33 -64 57l-43 8q-29 0 -64.5 -14t-95.5 -51l-43 -27l-53 -39v-207l51 25l29 12l76 27 l61 10q115 0 172 -57q63 -51 64 -150q0 -51 -25.5 -107.5t-73.5 -91.5l-41 -30l-57 -33l-55 72l43 24l31 23q74 53 73 143q0 39 -10 60q-10 41 -70 55l-55 8q-20 0 -63 -12l-76 -37l-33 -21l-41 -28v-287h-106v209q-10 -14 -29 -25l-64 -32l-88 -37q-43 -12 -75 -13 q-29 0 -45.5 2t-47.5 15q-82 29 -122 117q-18 41 -19 86q0 35 25 84l18 26l25 25l24 16l-39 29l-26 37l-17 39l-4 40q0 43 21 84q33 76 127 115q20 6 45.5 11.5t46.5 5.5l47 -5l55 -12l13 -4l16 -6l41 -90l-33 6l-22 6l-62 12l-41 4q-86 0 -137 -88l-10 -49q0 -53 71 -90 l31 6l33 2l37 -2l106 -12l33 -2l41 -94l-22 4l-56 12l-63 10l-43 4q-43 0 -66 -10q-63 -10 -92 -65q-10 -23 -14 -58q0 -55 35 -88q10 -14 43 -26l63 -9q78 0 162 60l57 41l21 26v656h-625z" />
<glyph unicode="&#xf5;" horiz-adv-x="12" d="M-774 1327l76 84l379 -354h-52zM-547 1520l96 53l328 -516h-72zM-260 1456q0 86 66.5 135t156.5 49l57 -6l56 -18v-82l-17 4l-14 6l-41 8l-39 4q-59 0 -96 -41.5t-37 -103.5q0 -45 17.5 -96t48.5 -92l28 -39l39 -47l-78 2q-16 12 -28 28l-47 74l-27 55l-27 58 q-18 55 -18 102zM-53 1315v115h125v-115h-125z" />
<glyph unicode="&#xf6;" d="M-2 193q0 20 9 40.5t30 42.5q37 31 94 37l27 -4l26 -12l23 -18l18 -27l70 -150l237 125q-55 0 -153 19q-20 0 -43 14q-197 74 -197 287q0 102 56.5 173t148.5 71l332 2v180h-676v84h1004v-84h-220v-260h-399q-137 0 -137 -166q0 -160 180 -234q55 -16 113 -16l20 2l31 4 l37 6l-2 19q0 18 10 37q31 113 111 112q66 0 86 -59l6 -37q0 -51 -29 -94q-14 -25 -39 -39l-45 -10l4 -27l14 -72l15 -45l24 -59l35 -55l21 -29l20 -23h-121l-37 84l-24 60q-2 8 -13.5 39.5t-13.5 40.5l-8 73l-326 -172l48 -100l2 -8l-5 -8l-10 -11q-25 0 -35 4l-69 23 l-29 10q-25 10 -31 14.5t-36 24.5v10l6 15l12 14l68 33l-72 157l-21 23l-26 8l-25 -6q-4 -2 -9 -4t-13 -10l-17 -21l-4 -24l2 -13v-8l13 -18l6 -8l8 -7l6 -6l10 -8l-55 -25l-8 5l-4 6l-13 14l-8 14l-8 25z" />
<glyph unicode="&#xf7;" horiz-adv-x="759" d="M0 973v84h768v-84h-113v-260h-391l-14 -11l-4 -10l2 -20l10 -23l21 -35l36 -45l25 -26l27 -17l26 -8l35 -2l33 2q33 0 55 8l53 9l35 4q35 0 64 -19l32 -22l21 -9l53 -16l51 -4l58 6q20 4 51 21l8 4l10 10v-102l-16 -2h-14l-17 -3h-12l-29 -4h-57q-18 0 -25 4l-12 3l-12 4 l-15 4l-12 8v-57q0 -102 -80 -175q-51 -45 -97 -66.5t-89 -21.5l94 -59l109 -47l-64 -80l-160 98l-36 27l-33 27l-19 18l-49 2h-69q-59 0 -95 47q-8 16 -14 55l6 31l19 31l26 18l33 9l31 -3q12 0 30 -12l29 -16l31 -23l20 -22l27 -33l70 14q39 6 51 17q123 55 123 178 q0 27 -4 31l-13 20l-18 12l-25 4l-35 -4l-94 -24l-28 -4l-46 6q-20 6 -44.5 19.5t-47.5 33.5l-45 47q-90 94 -90 182q0 47 43 78l29 11l37 4l305 2v176h-549z" />
<glyph unicode="&#xf8;" horiz-adv-x="415" d="M68 551l20 16l18 13l37 30l25 31l16 31l15 41l10 41l4 32v431q0 41 18 94q37 98 119 137q47 20 88 20l27 -4l35 -6l168 2v-63h-164q-31 0 -44.5 -3t-35.5 -14q-76 -31 -111 -98q-14 -43 -14 -72l-4 -456q0 -20 -8 -47q0 -12 -2 -20.5t-15 -31.5l-22 -37l-109 -65l21 -16 l16 -9q25 -10 37 -28l27 -23l8 -14l12 -17l19 -51l14 -55l6 -43v-418q0 -86 55 -129q37 -29 105 -41l45 -2h164v-80h-168q-207 0 -264 140q-23 51 -23 108v428q0 68 -37 136.5t-108 111.5z" />
<glyph unicode="&#xf9;" horiz-adv-x="1404" d="M0 973v84h1409v-84h-149v-973h-107v205h-334v-113l-2 -22l-4 -13l-16 -12l-21 -4q-37 0 -117 82q-72 68 -84 119l3 16l10 12l16 6l25 7l80 2v172h-357q-33 0 -59 8h-10l-13 4l-16 6l-37 39l-24 35q-16 23 -25.5 39t-22.5 43q-14 43 -14 76l6 36l23 29l30 16l37 7l432 2 v176h-659zM246 674q0 -43 35 -84l32 -37l27 -10l479 2v-260h334v688h-385v-264h-487q-27 0 -35 -35z" />
<glyph unicode="&#x152;" horiz-adv-x="897" d="M152 467q0 104 57 190t158 129q27 10 63.5 18.5t65.5 8.5q141 0 248.5 -99.5t107.5 -246.5q0 -136 -92 -234q-90 -96 -236 -96q-135 0 -253.5 93.5t-118.5 236.5zM256 401q0 -37 18 -73q12 -27 48 -58l69 -41q37 -12 80 -12q82 0 154 57q68 49 104 132q16 37 21.5 63.5 t5.5 52.5q-1 83 -58 140t-149 57q-117 0 -205 -94.5t-88 -223.5z" />
<glyph unicode="&#x178;" horiz-adv-x="712" d="M0 973v84h805v-84h-805zM43 672v80h856v-80h-371q-68 0 -130 -50.5t-62 -132.5q0 -115 129 -266l53 -61l78 -76l-64 -78l-86 90l-61 74q-150 180 -149 317q0 59 26 101l19 28l51 52z" />
<glyph unicode="&#x2c6;" horiz-adv-x="964" d="M180 846q0 90 74 143q25 12 53 12l318 3l47 -97h-303q-18 0 -37 -10q-18 -6 -33 -27l-20 -41q-6 -18 -7 -47q0 -27 15 -49l32 -53l17 -21l24 -24l273 2l51 -100h-260q-49 0 -80 -56l-22 -55l-7 -55q0 -129 117 -197q43 -14 74 -14l49 8l-6 4l-10 27l-2 26q-6 70 69 103 l41 8q78 0 109 -68l8 -51q0 -31 -7 -50.5t-28 -41.5l-24 -29l-21 -14l45 -72l53 -73l56 -72l55 -58l-82 -51l-23 33l-14 23l-37 59l-86 158l-14 37l-23 -7l-20 -6q-18 0 -25 -4h-20q-111 0 -232 123q-51 55 -86 123q-27 59 -26 127q0 90 57 160l14 12l17 16l-43 49l-37 62 l-25 63z" />
<glyph unicode="&#x2dc;" d="M-2 193q0 20 9 40.5t30 42.5q37 31 94 37l27 -4l26 -12l23 -18l18 -27l70 -150l237 125q-55 0 -153 19q-20 0 -43 14q-197 74 -197 287q0 102 56.5 173t148.5 71l332 2v180h-676v84h1004v-84h-220v-260h-399q-137 0 -137 -166q0 -160 180 -234q55 -16 113 -16l20 2l31 4 l37 6l-2 19q0 18 10 37q31 113 111 112q66 0 86 -59l6 -37q0 -51 -29 -94q-14 -25 -39 -39l-45 -10l4 -27l14 -72l15 -45l24 -59l35 -55l21 -29l20 -23h-121l-37 84l-24 60q-2 8 -13.5 39.5t-13.5 40.5l-8 73l-326 -172l48 -100l2 -8l-5 -8l-10 -11q-25 0 -35 4l-69 23 l-29 10q-25 10 -31 14.5t-36 24.5v10l6 15l12 14l68 33l-72 157l-21 23l-26 8l-25 -6q-4 -2 -9 -4t-13 -10l-17 -21l-4 -24l2 -13v-8l13 -18l6 -8l8 -7l6 -6l10 -8l-55 -25l-8 5l-4 6l-13 14l-8 14l-8 25z" />
<glyph unicode="&#x2000;" horiz-adv-x="820" />
<glyph unicode="&#x2001;" horiz-adv-x="1640" />
<glyph unicode="&#x2002;" horiz-adv-x="820" />
<glyph unicode="&#x2003;" horiz-adv-x="1640" />
<glyph unicode="&#x2004;" horiz-adv-x="546" />
<glyph unicode="&#x2005;" horiz-adv-x="410" />
<glyph unicode="&#x2006;" horiz-adv-x="273" />
<glyph unicode="&#x2007;" horiz-adv-x="273" />
<glyph unicode="&#x2008;" horiz-adv-x="205" />
<glyph unicode="&#x2009;" horiz-adv-x="328" />
<glyph unicode="&#x200a;" horiz-adv-x="91" />
<glyph unicode="&#x2010;" horiz-adv-x="344" d="M104 0v135h144v-135h-144z" />
<glyph unicode="&#x2011;" horiz-adv-x="344" d="M104 0v135h144v-135h-144z" />
<glyph unicode="&#x2012;" horiz-adv-x="344" d="M104 0v135h144v-135h-144z" />
<glyph unicode="&#x2013;" d="M0 973v84h1028v-84h-223v-277h-377q-49 0 -102 -49l-33 -51l-10 -55q0 -186 178 -254l74 -17l106 -8l-4 12v11q0 23 -4 30l-2 23q0 35 4 45l18 41q27 39 86 39q20 0 37 -10q35 -12 55 -62l9 -41q0 -66 -39 -102l-17 -15l-24 -16l51 -113l35 -59l35 -47l14 -16l16 -23 h-135l-55 109l-57 120l-17 -4h-14q-162 0 -263.5 48.5t-145.5 122t-44 184.5q0 94 59.5 168.5t145.5 74.5l303 2v189h-688zM444 -274q0 102 58 159q29 29 72.5 46.5t82.5 17.5h172v-84h-145q-51 0 -90 -39q-20 -18 -33 -41l-8 -51q0 -74 58.5 -116t125.5 -42q35 0 47 4 q25 0 47 14l46 25q20 10 24 23l55 -80l-36 -21l-29 -14l-43 -14l-41 -13l-43 -6l-43 -2q-31 0 -47.5 2t-50.5 14q-109 37 -154 119q-25 47 -25 99z" />
<glyph unicode="&#x2014;" horiz-adv-x="1304" d="M0 973v84h1300v-84h-569v-309l37 34l25 21q63 51 143 51q115 0 201 -78q80 -72 80 -186q0 -117 -107 -250l-45 -55l-61 -68l-89 68q14 4 33 22q86 86 133 193q23 57 23 98q0 57 -21 100q-37 72 -135 72q-84 0 -155 -90q-23 -31 -45 -80q-16 -45 -17 -78v-438h-106v303 q-76 -76 -191 -76t-205 81t-90 202q0 123 84 199q61 55 144 73l55 6l55 -6q41 -6 55 -16v-86l-49 16l-45 6q-76 0 -131 -53q-14 -14 -41 -61q-14 -43 -14 -74q0 -86 51 -145q23 -29 59 -47q18 -8 33 -12.5t37 -4.5q74 0 150 76q43 43 43 82v510h-625zM352 -219 q0 141 127 205q25 6 43.5 10t40.5 4h168v-80h-139q-49 0 -90 -37q-16 -18 -33 -45l-8 -51q0 -37 14 -63q12 -35 70 -68q41 -23 102 -23q94 0 162 60l51 -80l-35 -21l-28 -14q-94 -35 -168 -35q-59 0 -99 17q-100 27 -155 125q-23 41 -23 96z" />
<glyph unicode="&#x2018;" horiz-adv-x="468" d="M0 973v84h479v-84h-190l375 -389v-207q-68 -78 -193 -78q-119 0 -213 71.5t-94 194.5v408h-164zM272 563q0 -86 54 -127q6 -6 24.5 -15t36.5 -20q35 -12 72 -12l55 6l55 19l47 30l35 41l-379 404v-326z" />
<glyph unicode="&#x2019;" horiz-adv-x="468" d="M0 973v84h479v-84h-190l375 -389v-207q-68 -78 -193 -78q-119 0 -213 71.5t-94 194.5v408h-164zM272 563q0 -86 54 -127q6 -6 24.5 -15t36.5 -20q35 -12 72 -12l55 6l55 19l47 30l35 41l-379 404v-326z" />
<glyph unicode="&#x201a;" horiz-adv-x="440" d="M-219 1470l106 3q0 -90 68 -158q23 -16 70 -39q45 -16 84 -16q94 0 156.5 58t62.5 152l106 3q-18 -208 -196 -269q-63 -23 -132 -22q-143 0 -222 77.5t-103 210.5zM-20 973v84h507v-84h-198v-973h-109v973h-200z" />
<glyph unicode="&#x201c;" horiz-adv-x="759" d="M0 973v84h756v-84h-148q29 -27 43 -55l33 -60l18 -63l9 -66q0 -111 -65.5 -210t-164.5 -140q-70 -29 -145 -29l340 -282l-72 -72l-491 416l71 71l68 -55l12 -4h12l54 2q59 6 114 37l64 43l49 51l33 55l10 43l4 60l-31 -27l-24 -18q-31 -25 -70 -37l-63 -10q-98 0 -164 63 q-35 31 -54.5 71t-19.5 83q0 66 58 131zM289 850q0 -61 39 -100t100 -39q66 0 125 55l16 22l23 33l-19 43q-6 20 -16 33q-49 78 -137 78q-37 0 -55 -10q-45 -12 -68 -68z" />
<glyph unicode="&#x201d;" horiz-adv-x="759" d="M0 973v84h756v-84h-148q29 -27 43 -55l33 -60l18 -63l9 -66q0 -111 -65.5 -210t-164.5 -140q-70 -29 -145 -29l340 -282l-72 -72l-491 416l71 71l68 -55l12 -4h12l54 2q59 6 114 37l64 43l49 51l33 55l10 43l4 60l-31 -27l-24 -18q-31 -25 -70 -37l-63 -10q-98 0 -164 63 q-35 31 -54.5 71t-19.5 83q0 66 58 131zM289 850q0 -61 39 -100t100 -39q66 0 125 55l16 22l23 33l-19 43q-6 20 -16 33q-49 78 -137 78q-37 0 -55 -10q-45 -12 -68 -68z" />
<glyph unicode="&#x201e;" horiz-adv-x="897" d="M125 969l51 12l86 18l88 15l66 4q33 0 63.5 -3t81.5 -24q152 -68 215 -209q29 -70 29 -141q0 -113 -72 -203q-35 -45 -78 -76q-33 -25 -84 -45l47 -98q18 -41 58 -90l67 -86l80 -80l-88 -43l-69 92l-58 88l-57 99l-43 98l-57 -2l-89 6q-80 12 -120 80q-18 31 -19 78 q0 51 35 73l39 25l47 8q66 0 119 -67l20 -29l25 -39l37 14l28 15q147 74 148 215q0 66 -23 104q-39 104 -200 131l-58 4q-68 0 -141 -18q-45 -12 -98 -49z" />
<glyph unicode="&#x2026;" horiz-adv-x="823" d="M172 1004h324q80 0 157 -74q63 -80 64 -172q0 -86 -47 -148l-21 -22l-28 -27q43 -31 69 -88q16 -35 19 -59l6 -58q0 -90 -49 -161q-47 -63 -134 -84l13 -23l22 -33l31 -37l35 -38l33 -39l41 -43l36 -35l21 -19l-76 -63l-45 55l-47 60l-33 45l-53 84l-29 43l-10 22l-57 2 l-80 2q-68 8 -109 60q-16 29 -16 71q0 39 31 68l32 20l39 9q37 0 109 -50l51 -51q14 0 35 10l53 33q74 43 74 111q0 23 -8 45l-19 51l-22 41l-13 14l-223 2l-76 105h248l35 16l27 19q53 37 61 118q0 63 -43 93q-31 16 -59 18l-80 8l-64 -4h-32.5t-42.5 -8l-64 -10 q-20 -2 -27 -9z" />
<glyph unicode="&#x202f;" horiz-adv-x="328" />
<glyph unicode="&#x2039;" horiz-adv-x="915" d="M113 651h239l-14 6l-12 11l-17 16q-18 20 -31.5 58t-13.5 75q0 117 82 156q35 16 82 26l109 9h122l17 -101l-37 2q-20 0 -27 4l-65 7l-51 2q-68 0 -120 -45.5t-52 -110.5q0 -33 26 -66l19 -20l18 -14l29 -17l389 2l18 -102h-323q-47 0 -117 -84q-49 -61 -64 -115l-4 -41 q0 -100 58 -133q20 -10 61 -20l86 -6l72 2q61 0 87 -3.5t56 -13.5q109 -25 148 -96q16 -33 16 -72l-6 -35q0 -12 -14 -28l-21 -15l-31 -20l-39 31l29 16l12 6l15 21l4 28l-4 13l-15 10l-22 10l-29 10l-73 19l-89 6l-94 6q-27 0 -42 3t-52 15q-102 31 -152 134 q-33 76 -32 186q0 74 37 123l14 18l24 23l-180 -2z" />
<glyph unicode="&#x203a;" horiz-adv-x="12" d="M-774 1327l76 84l379 -354h-52zM-547 1520l96 53l328 -516h-72zM-260 1456q0 86 66.5 135t156.5 49l57 -6l56 -18v-82l-17 4l-14 6l-41 8l-39 4q-59 0 -96 -41.5t-37 -103.5q0 -45 17.5 -96t48.5 -92l28 -39l39 -47l-78 2q-16 12 -28 28l-47 74l-27 55l-27 58 q-18 55 -18 102zM-53 1315v115h125v-115h-125z" />
<glyph unicode="&#x205f;" horiz-adv-x="410" />
<glyph unicode="&#x2122;" horiz-adv-x="593" d="M0 973v84h827v-80zM39 702q0 25 29 48l88 34l120 21l132 8q47 0 74.5 -2t55 -14.5t56.5 -40.5q49 -39 88 -88l41 -50l57 -65v-96l-381 -205l62 -105l2 -18l2 -10q0 -25 -12 -31l-17 -4l-20 -2l-29 2q-23 0 -37 8l-47 12l-55 25l-37 18l-27 23l-14 20l-4 23q0 35 43 70 l8 6l14 8l496 211l-37 41l-28 33q-35 41 -74 69q-35 33 -60 43l-30 13l-33 8l-37 4l-33 2l-49 -2l-45 -6l-18 -4l-23 -7l8 -147l-6 -23l-6 -12l-14 -12l-17 -4l-20 4l-27 16l-31 27l-34 37l-58 74l-12 20z" />
<glyph unicode="&#x25fc;" horiz-adv-x="1054" d="M0 0v1055h1055v-1055h-1055z" />
</font>
</defs>
</svg>
